<svg width="64" height="64" viewBox="0 0 64 64" fill="none" xmlns="http://www.w3.org/2000/svg">
<g id="Asuminen ja rakentaminen">
<path id="Fill 81" fill-rule="evenodd" clip-rule="evenodd" d="M18 62H46V2H18V62ZM47 64H17C16.447 64 16 63.553 16 63V1C16 0.447 16.447 0 17 0H47C47.553 0 48 0.447 48 1V63C48 63.553 47.553 64 47 64Z" fill="#A5ADB1"/>
<path id="Fill 82" fill-rule="evenodd" clip-rule="evenodd" d="M20 55H44V53H20V55Z" fill="#A5ADB1"/>
<path id="Fill 83" fill-rule="evenodd" clip-rule="evenodd" d="M22 63H24V54H22V63Z" fill="#A5ADB1"/>
<path id="Fill 84" fill-rule="evenodd" clip-rule="evenodd" d="M40 63H42V54H40V63Z" fill="#A5ADB1"/>
<path id="Fill 85" fill-rule="evenodd" clip-rule="evenodd" d="M31 63H33V54H31V63Z" fill="#A5ADB1"/>
<path id="Fill 86" fill-rule="evenodd" clip-rule="evenodd" d="M35 59H37V57H35V59Z" fill="#A5ADB1"/>
<path id="Fill 87" fill-rule="evenodd" clip-rule="evenodd" d="M27 59H29V57H27V59Z" fill="#A5ADB1"/>
<path id="Fill 88" fill-rule="evenodd" clip-rule="evenodd" d="M39 48H41V46H39V48ZM42 50H38C37.447 50 37 49.553 37 49V45C37 44.447 37.447 44 38 44H42C42.553 44 43 44.447 43 45V49C43 49.553 42.553 50 42 50Z" fill="#A5ADB1"/>
<path id="Fill 89" fill-rule="evenodd" clip-rule="evenodd" d="M31 48H33V46H31V48ZM34 50H30C29.447 50 29 49.553 29 49V45C29 44.447 29.447 44 30 44H34C34.553 44 35 44.447 35 45V49C35 49.553 34.553 50 34 50Z" fill="#A5ADB1"/>
<path id="Fill 90" fill-rule="evenodd" clip-rule="evenodd" d="M23 48H25V46H23V48ZM26 50H22C21.447 50 21 49.553 21 49V45C21 44.447 21.447 44 22 44H26C26.553 44 27 44.447 27 45V49C27 49.553 26.553 50 26 50Z" fill="#A5ADB1"/>
<path id="Fill 91" fill-rule="evenodd" clip-rule="evenodd" d="M39 39H41V37H39V39ZM42 41H38C37.447 41 37 40.553 37 40V36C37 35.447 37.447 35 38 35H42C42.553 35 43 35.447 43 36V40C43 40.553 42.553 41 42 41Z" fill="#A5ADB1"/>
<path id="Fill 92" fill-rule="evenodd" clip-rule="evenodd" d="M31 39H33V37H31V39ZM34 41H30C29.447 41 29 40.553 29 40V36C29 35.447 29.447 35 30 35H34C34.553 35 35 35.447 35 36V40C35 40.553 34.553 41 34 41Z" fill="#003479"/>
<path id="Fill 93" fill-rule="evenodd" clip-rule="evenodd" d="M23 39H25V37H23V39ZM26 41H22C21.447 41 21 40.553 21 40V36C21 35.447 21.447 35 22 35H26C26.553 35 27 35.447 27 36V40C27 40.553 26.553 41 26 41Z" fill="#A5ADB1"/>
<path id="Fill 94" fill-rule="evenodd" clip-rule="evenodd" d="M39 30H41V28H39V30ZM42 32H38C37.447 32 37 31.553 37 31V27C37 26.447 37.447 26 38 26H42C42.553 26 43 26.447 43 27V31C43 31.553 42.553 32 42 32Z" fill="#A5ADB1"/>
<path id="Fill 95" fill-rule="evenodd" clip-rule="evenodd" d="M31 30H33V28H31V30ZM34 32H30C29.447 32 29 31.553 29 31V27C29 26.447 29.447 26 30 26H34C34.553 26 35 26.447 35 27V31C35 31.553 34.553 32 34 32Z" fill="#A5ADB1"/>
<path id="Fill 96" fill-rule="evenodd" clip-rule="evenodd" d="M23 30H25V28H23V30ZM26 32H22C21.447 32 21 31.553 21 31V27C21 26.447 21.447 26 22 26H26C26.553 26 27 26.447 27 27V31C27 31.553 26.553 32 26 32Z" fill="#003479"/>
<path id="Fill 97" fill-rule="evenodd" clip-rule="evenodd" d="M39 21H41V19H39V21ZM42 23H38C37.447 23 37 22.553 37 22V18C37 17.447 37.447 17 38 17H42C42.553 17 43 17.447 43 18V22C43 22.553 42.553 23 42 23Z" fill="#003479"/>
<path id="Fill 98" fill-rule="evenodd" clip-rule="evenodd" d="M31 21H33V19H31V21ZM34 23H30C29.447 23 29 22.553 29 22V18C29 17.447 29.447 17 30 17H34C34.553 17 35 17.447 35 18V22C35 22.553 34.553 23 34 23Z" fill="#A5ADB1"/>
<path id="Fill 99" fill-rule="evenodd" clip-rule="evenodd" d="M23 21H25V19H23V21ZM26 23H22C21.447 23 21 22.553 21 22V18C21 17.447 21.447 17 22 17H26C26.553 17 27 17.447 27 18V22C27 22.553 26.553 23 26 23Z" fill="#A5ADB1"/>
<path id="Fill 100" fill-rule="evenodd" clip-rule="evenodd" d="M39 12H41V10H39V12ZM42 14H38C37.447 14 37 13.553 37 13V9C37 8.447 37.447 8 38 8H42C42.553 8 43 8.447 43 9V13C43 13.553 42.553 14 42 14Z" fill="#A5ADB1"/>
<path id="Fill 101" fill-rule="evenodd" clip-rule="evenodd" d="M31 12H33V10H31V12ZM34 14H30C29.447 14 29 13.553 29 13V9C29 8.447 29.447 8 30 8H34C34.553 8 35 8.447 35 9V13C35 13.553 34.553 14 34 14Z" fill="#A5ADB1"/>
<path id="Fill 102" fill-rule="evenodd" clip-rule="evenodd" d="M23 12H25V10H23V12ZM26 14H22C21.447 14 21 13.553 21 13V9C21 8.447 21.447 8 22 8H26C26.553 8 27 8.447 27 9V13C27 13.553 26.553 14 26 14Z" fill="#003479"/>
<path id="Fill 103" fill-rule="evenodd" clip-rule="evenodd" d="M48 62H62V23H48V62ZM63 64H47C46.447 64 46 63.553 46 63V22C46 21.447 46.447 21 47 21H63C63.553 21 64 21.447 64 22V63C64 63.553 63.553 64 63 64Z" fill="#A5ADB1"/>
<path id="Fill 104" fill-rule="evenodd" clip-rule="evenodd" d="M50 28H52V26H50V28Z" fill="#A5ADB1"/>
<path id="Fill 105" fill-rule="evenodd" clip-rule="evenodd" d="M54 28H56V26H54V28Z" fill="#A5ADB1"/>
<path id="Fill 106" fill-rule="evenodd" clip-rule="evenodd" d="M58 28H60V26H58V28Z" fill="#A5ADB1"/>
<path id="Fill 107" fill-rule="evenodd" clip-rule="evenodd" d="M50 32H52V30H50V32Z" fill="#A5ADB1"/>
<path id="Fill 108" fill-rule="evenodd" clip-rule="evenodd" d="M54 32H56V30H54V32Z" fill="#A5ADB1"/>
<path id="Fill 109" fill-rule="evenodd" clip-rule="evenodd" d="M58 32H60V30H58V32Z" fill="#A5ADB1"/>
<path id="Fill 110" fill-rule="evenodd" clip-rule="evenodd" d="M50 46H52V44H50V46Z" fill="#A5ADB1"/>
<path id="Fill 111" fill-rule="evenodd" clip-rule="evenodd" d="M54 46H56V44H54V46Z" fill="#A5ADB1"/>
<path id="Fill 112" fill-rule="evenodd" clip-rule="evenodd" d="M58 46H60V44H58V46Z" fill="#A5ADB1"/>
<path id="Fill 113" fill-rule="evenodd" clip-rule="evenodd" d="M50 50H52V48H50V50Z" fill="#A5ADB1"/>
<path id="Fill 114" fill-rule="evenodd" clip-rule="evenodd" d="M54 50H56V48H54V50Z" fill="#A5ADB1"/>
<path id="Fill 115" fill-rule="evenodd" clip-rule="evenodd" d="M58 50H60V48H58V50Z" fill="#A5ADB1"/>
<path id="Fill 116" fill-rule="evenodd" clip-rule="evenodd" d="M50 37H52V35H50V37Z" fill="#A5ADB1"/>
<path id="Fill 117" fill-rule="evenodd" clip-rule="evenodd" d="M54 37H56V35H54V37Z" fill="#A5ADB1"/>
<path id="Fill 118" fill-rule="evenodd" clip-rule="evenodd" d="M58 37H60V35H58V37Z" fill="#A5ADB1"/>
<path id="Fill 119" fill-rule="evenodd" clip-rule="evenodd" d="M50 41H52V39H50V41Z" fill="#A5ADB1"/>
<path id="Fill 120" fill-rule="evenodd" clip-rule="evenodd" d="M54 41H56V39H54V41Z" fill="#A5ADB1"/>
<path id="Fill 121" fill-rule="evenodd" clip-rule="evenodd" d="M58 41H60V39H58V41Z" fill="#A5ADB1"/>
<path id="Fill 122" fill-rule="evenodd" clip-rule="evenodd" d="M21 6H43V4H21V6Z" fill="#A5ADB1"/>
<path id="Fill 123" fill-rule="evenodd" clip-rule="evenodd" d="M50 22H52V19H50V22Z" fill="#A5ADB1"/>
<path id="Fill 124" fill-rule="evenodd" clip-rule="evenodd" d="M59 22H61V19H59V22Z" fill="#A5ADB1"/>
<path id="Fill 125" fill-rule="evenodd" clip-rule="evenodd" d="M47 55H63V53H47V55Z" fill="#A5ADB1"/>
<path id="Fill 126" fill-rule="evenodd" clip-rule="evenodd" d="M47 59H63V57H47V59Z" fill="#A5ADB1"/>
<path id="Fill 127" fill-rule="evenodd" clip-rule="evenodd" d="M2 62H16V23H2V62ZM17 64H1C0.447 64 0 63.553 0 63V22C0 21.447 0.447 21 1 21H17C17.553 21 18 21.447 18 22V63C18 63.553 17.553 64 17 64Z" fill="#A5ADB1"/>
<path id="Fill 128" fill-rule="evenodd" clip-rule="evenodd" d="M4 28H6V26H4V28Z" fill="#A5ADB1"/>
<path id="Fill 129" fill-rule="evenodd" clip-rule="evenodd" d="M8 28H10V26H8V28Z" fill="#A5ADB1"/>
<path id="Fill 130" fill-rule="evenodd" clip-rule="evenodd" d="M12 28H14V26H12V28Z" fill="#A5ADB1"/>
<path id="Fill 131" fill-rule="evenodd" clip-rule="evenodd" d="M4 32H6V30H4V32Z" fill="#A5ADB1"/>
<path id="Fill 132" fill-rule="evenodd" clip-rule="evenodd" d="M8 32H10V30H8V32Z" fill="#A5ADB1"/>
<path id="Fill 133" fill-rule="evenodd" clip-rule="evenodd" d="M12 32H14V30H12V32Z" fill="#A5ADB1"/>
<path id="Fill 134" fill-rule="evenodd" clip-rule="evenodd" d="M4 46H6V44H4V46Z" fill="#A5ADB1"/>
<path id="Fill 135" fill-rule="evenodd" clip-rule="evenodd" d="M8 46H10V44H8V46Z" fill="#A5ADB1"/>
<path id="Fill 136" fill-rule="evenodd" clip-rule="evenodd" d="M12 46H14V44H12V46Z" fill="#A5ADB1"/>
<path id="Fill 137" fill-rule="evenodd" clip-rule="evenodd" d="M4 50H6V48H4V50Z" fill="#A5ADB1"/>
<path id="Fill 138" fill-rule="evenodd" clip-rule="evenodd" d="M8 50H10V48H8V50Z" fill="#A5ADB1"/>
<path id="Fill 139" fill-rule="evenodd" clip-rule="evenodd" d="M12 50H14V48H12V50Z" fill="#A5ADB1"/>
<path id="Fill 140" fill-rule="evenodd" clip-rule="evenodd" d="M4 37H6V35H4V37Z" fill="#A5ADB1"/>
<path id="Fill 141" fill-rule="evenodd" clip-rule="evenodd" d="M8 37H10V35H8V37Z" fill="#A5ADB1"/>
<path id="Fill 142" fill-rule="evenodd" clip-rule="evenodd" d="M12 37H14V35H12V37Z" fill="#A5ADB1"/>
<path id="Fill 143" fill-rule="evenodd" clip-rule="evenodd" d="M4 41H6V39H4V41Z" fill="#A5ADB1"/>
<path id="Fill 144" fill-rule="evenodd" clip-rule="evenodd" d="M8 41H10V39H8V41Z" fill="#A5ADB1"/>
<path id="Fill 145" fill-rule="evenodd" clip-rule="evenodd" d="M12 41H14V39H12V41Z" fill="#A5ADB1"/>
<path id="Fill 146" fill-rule="evenodd" clip-rule="evenodd" d="M4 22H6V19H4V22Z" fill="#A5ADB1"/>
<path id="Fill 147" fill-rule="evenodd" clip-rule="evenodd" d="M13 22H15V19H13V22Z" fill="#A5ADB1"/>
<path id="Fill 148" fill-rule="evenodd" clip-rule="evenodd" d="M1 55H17V53H1V55Z" fill="#A5ADB1"/>
<path id="Fill 149" fill-rule="evenodd" clip-rule="evenodd" d="M1 59H17V57H1V59Z" fill="#A5ADB1"/>
</g>
</svg>
