<svg width="64" height="64" viewBox="0 0 64 64" fill="none" xmlns="http://www.w3.org/2000/svg">
<g id="Group 8">
<path id="Fill 503" fill-rule="evenodd" clip-rule="evenodd" d="M32 49C28.691 49 26 46.309 26 43C26 38.094 24.539 36.403 22.993 34.614C21.521 32.911 20 31.15 20 27C20 20.384 25.383 15 32 15C38.617 15 44 20 44 27H42C42 21 37.514 17 32 17C26.486 17 22 21.486 22 27C22 30.405 23.162 31.75 24.506 33.306C26.144 35.201 28 37.35 28 43C28 45.206 29.794 47 32 47C34.206 47 36 45 36 43H38C38 46 35.309 49 32 49Z" fill="#003479"/>
<path id="Fill 504" fill-rule="evenodd" clip-rule="evenodd" d="M34 41C31.794 41 30 39 30 37H32C32 38 32.897 39 34 39C35.103 39 36 38.103 36 37C36 35.897 35.103 35 34 35H32C27.589 35 24 31.411 24 27C24 22.589 27.589 19 32 19C36.411 19 40 23 40 27H38C38 24 35.309 21 32 21C28.691 21 26 23.692 26 27C26 30.309 28.691 33 32 33H34C36.206 33 38 34.794 38 37C38 39.206 36.206 41 34 41Z" fill="#003479"/>
<path id="Fill 505" fill-rule="evenodd" clip-rule="evenodd" d="M13 23H15V21H13V23Z" fill="#A5ADB1"/>
<path id="Fill 506" fill-rule="evenodd" clip-rule="evenodd" d="M8 20H10V18H8V20Z" fill="#A5ADB1"/>
<path id="Fill 507" fill-rule="evenodd" clip-rule="evenodd" d="M3 17H5V15H3V17Z" fill="#A5ADB1"/>
<path id="Fill 508" fill-rule="evenodd" clip-rule="evenodd" d="M21 15H23V13H21V15Z" fill="#A5ADB1"/>
<path id="Fill 509" fill-rule="evenodd" clip-rule="evenodd" d="M18 10H20V8H18V10Z" fill="#A5ADB1"/>
<path id="Fill 510" fill-rule="evenodd" clip-rule="evenodd" d="M15 5H17V3H15V5Z" fill="#A5ADB1"/>
<path id="Fill 511" fill-rule="evenodd" clip-rule="evenodd" d="M31 7H33V5H31V7Z" fill="#A5ADB1"/>
<path id="Fill 512" fill-rule="evenodd" clip-rule="evenodd" d="M31 12H33V10H31V12Z" fill="#A5ADB1"/>
<path id="Fill 513" fill-rule="evenodd" clip-rule="evenodd" d="M31 2H33V0H31V2Z" fill="#A5ADB1"/>
<path id="Fill 514" fill-rule="evenodd" clip-rule="evenodd" d="M49 23H51V21H49V23Z" fill="#A5ADB1"/>
<path id="Fill 515" fill-rule="evenodd" clip-rule="evenodd" d="M54 20H56V18H54V20Z" fill="#A5ADB1"/>
<path id="Fill 516" fill-rule="evenodd" clip-rule="evenodd" d="M59 17H61V15H59V17Z" fill="#A5ADB1"/>
<path id="Fill 517" fill-rule="evenodd" clip-rule="evenodd" d="M41 15H43V13H41V15Z" fill="#A5ADB1"/>
<path id="Fill 518" fill-rule="evenodd" clip-rule="evenodd" d="M44 10H46V8H44V10Z" fill="#A5ADB1"/>
<path id="Fill 519" fill-rule="evenodd" clip-rule="evenodd" d="M47 5H49V3H47V5Z" fill="#A5ADB1"/>
<path id="Fill 520" fill-rule="evenodd" clip-rule="evenodd" d="M5 33H7V31H5V33Z" fill="#A5ADB1"/>
<path id="Fill 521" fill-rule="evenodd" clip-rule="evenodd" d="M10 33H12V31H10V33Z" fill="#A5ADB1"/>
<path id="Fill 522" fill-rule="evenodd" clip-rule="evenodd" d="M0 33H2V31H0V33Z" fill="#A5ADB1"/>
<path id="Fill 523" fill-rule="evenodd" clip-rule="evenodd" d="M13 43H15V41H13V43Z" fill="#A5ADB1"/>
<path id="Fill 524" fill-rule="evenodd" clip-rule="evenodd" d="M8 46H10V44H8V46Z" fill="#A5ADB1"/>
<path id="Fill 525" fill-rule="evenodd" clip-rule="evenodd" d="M3 49H5V47H3V49Z" fill="#A5ADB1"/>
<path id="Fill 526" fill-rule="evenodd" clip-rule="evenodd" d="M21 51H23V49H21V51Z" fill="#A5ADB1"/>
<path id="Fill 527" fill-rule="evenodd" clip-rule="evenodd" d="M18 56H20V54H18V56Z" fill="#A5ADB1"/>
<path id="Fill 528" fill-rule="evenodd" clip-rule="evenodd" d="M15 61H17V59H15V61Z" fill="#A5ADB1"/>
<path id="Fill 529" fill-rule="evenodd" clip-rule="evenodd" d="M31 59H33V57H31V59Z" fill="#A5ADB1"/>
<path id="Fill 530" fill-rule="evenodd" clip-rule="evenodd" d="M31 54H33V52H31V54Z" fill="#A5ADB1"/>
<path id="Fill 531" fill-rule="evenodd" clip-rule="evenodd" d="M31 64H33V62H31V64Z" fill="#A5ADB1"/>
<path id="Fill 532" fill-rule="evenodd" clip-rule="evenodd" d="M57 33H59V31H57V33Z" fill="#A5ADB1"/>
<path id="Fill 533" fill-rule="evenodd" clip-rule="evenodd" d="M52 33H54V31H52V33Z" fill="#A5ADB1"/>
<path id="Fill 534" fill-rule="evenodd" clip-rule="evenodd" d="M62 33H64V31H62V33Z" fill="#A5ADB1"/>
<path id="Fill 535" fill-rule="evenodd" clip-rule="evenodd" d="M49 43H51V41H49V43Z" fill="#A5ADB1"/>
<path id="Fill 536" fill-rule="evenodd" clip-rule="evenodd" d="M54 46H56V44H54V46Z" fill="#A5ADB1"/>
<path id="Fill 537" fill-rule="evenodd" clip-rule="evenodd" d="M59 49H61V47H59V49Z" fill="#A5ADB1"/>
<path id="Fill 538" fill-rule="evenodd" clip-rule="evenodd" d="M41 51H43V49H41V51Z" fill="#A5ADB1"/>
<path id="Fill 539" fill-rule="evenodd" clip-rule="evenodd" d="M44 56H46V54H44V56Z" fill="#A5ADB1"/>
<path id="Fill 540" fill-rule="evenodd" clip-rule="evenodd" d="M47 61H49V59H47V61Z" fill="#A5ADB1"/>
</g>
</svg>
