<svg width="64" height="64" viewBox="0 0 64 64" fill="none" xmlns="http://www.w3.org/2000/svg">
<defs>
<style>.cls-1{fill:none;}.cls-2{fill:#003479;}.cls-3{fill:#444;}</style>
</defs>
<title>Asset 3</title>
<g id="Energia">
<rect id="bounding-box" class="cls-1" width="64" height="64"/>
<rect class="cls-2" x="37" y="42.036" width="2" height="5.112" transform="translate(-20.553 46.564) rotate(-51.492)"/>
<rect class="cls-3" x="33" y="60" width="14" height="2"/><rect class="cls-3" x="33" y="64" width="14" height="2"/>
<rect class="cls-3" x="35" y="68" width="10" height="2"/>
<polygon class="cls-2" points="41 54 39 54 39 45.7 43.378 42.218 44.623 43.783 41 46.665 41 54"/>
<rect class="cls-2" x="39" y="7" width="2" height="8"/>
<rect class="cls-3" x="32.788" y="11.818" width="2" height="4" transform="translate(-2.425 9.215) rotate(-14.998)"/>
<rect class="cls-3" x="22.03" y="18.03" width="2" height="4" transform="translate(-7.418 22.151) rotate(-45)"/>
<rect class="cls-3" x="15.818" y="28.788" width="2" height="4" transform="translate(-17.274 39.066) rotate(-75.002)"/>
<rect class="cls-3" x="14.818" y="42.212" width="4" height="2" transform="translate(-10.611 5.825) rotate(-15)"/>
<rect class="cls-3" x="62.182" y="41.212" width="2" height="4" transform="translate(5.092 93.059) rotate(-75.002)"/>
<rect class="cls-3" x="61.182" y="29.788" width="4" height="2" transform="translate(-5.816 17.402) rotate(-15)"/>
<rect class="cls-3" x="54.971" y="19.03" width="4" height="2" transform="translate(2.523 46.151) rotate(-45)"/>
<rect class="cls-3" x="44.212" y="12.818" width="4" height="2" transform="translate(20.904 54.879) rotate(-75)"/>
<rect class="cls-2" x="25.994" y="10.463" width="2" height="8.022" transform="translate(-3.62 15.437) rotate(-30.001)"/>
<rect class="cls-2" x="16.474" y="19.984" width="2" height="8.022" transform="translate(-12.043 27.129) rotate(-59.999)"/>
<rect class="cls-2" x="10" y="36" width="8" height="2"/>
<rect class="cls-2" x="13.483" y="49" width="8" height="2" transform="translate(-22.655 15.437) rotate(-29.995)"/>
<rect class="cls-2" x="61.309" y="46.12" width="2" height="7.521" transform="translate(-12.043 78.903) rotate(-60.001)"/>
<rect class="cls-2" x="62" y="36" width="8" height="2"/>
<rect class="cls-2" x="58.515" y="22.994" width="8.023" height="2" transform="translate(-3.621 34.472) rotate(-29.995)"/>
<rect class="cls-2" x="49.1" y="13.656" width="7.602" height="2" transform="translate(13.762 53.145) rotate(-60.005)"/>
<polygon class="cls-3" points="40.062 21.959 40.059 19.959 40.062 19.959 40.062 21.959"/>
<path class="cls-3" d="M44.459,58H35.541a1.5,1.5,0,0,1-1.5-1.5,5.913,5.913,0,0,0-2.9-5.055A16.849,16.849,0,0,1,23,36.982,17.053,17.053,0,0,1,40,20H40A17.052,17.052,0,0,1,57,36.982a16.846,16.846,0,0,1-8.146,14.464,5.913,5.913,0,0,0-2.9,5.055A1.5,1.5,0,0,1,44.459,58Zm-8.433-2h7.948a7.912,7.912,0,0,1,3.837-6.261A14.86,14.86,0,0,0,55,36.982a15,15,0,0,0-30,0,14.862,14.862,0,0,0,7.189,12.757A7.912,7.912,0,0,1,36.026,56Z"/>
<path class="cls-2" d="M29,36.987H27A13.04,13.04,0,0,1,40,24L40,26A11.037,11.037,0,0,0,29,36.987Z"/></g></svg>
