<svg width="66" height="58" viewBox="0 0 66 58" fill="none" xmlns="http://www.w3.org/2000/svg">
<g id="Hallinto verotus ja rahoitus">
<path id="Fill 252" fill-rule="evenodd" clip-rule="evenodd" d="M2 20H64V19.585L33 2.147L2 19.585V20ZM65 22H1C0.447 22 0 21.553 0 21V19C0 18.639 0.195 18.306 0.51 18.129L32.51 0.129C32.814 -0.043 33.186 -0.043 33.49 0.129L65.49 18.129C65.805 18.306 66 18.639 66 19V21C66 21.553 65.553 22 65 22Z" fill="#A5ADB1"/>
<path id="Fill 253" fill-rule="evenodd" clip-rule="evenodd" d="M60 30H48V25H50V28H58V25H60V30Z" fill="#A5ADB1"/>
<path id="Fill 254" fill-rule="evenodd" clip-rule="evenodd" d="M60 53H58V50H50V53H48V48H60V53Z" fill="#A5ADB1"/>
<path id="Fill 255" fill-rule="evenodd" clip-rule="evenodd" d="M50 49H52V30H50V49Z" fill="#A5ADB1"/>
<path id="Fill 256" fill-rule="evenodd" clip-rule="evenodd" d="M56 49H58V30H56V49Z" fill="#A5ADB1"/>
<path id="Fill 257" fill-rule="evenodd" clip-rule="evenodd" d="M46 30H34V25H36V28H44V25H46V30Z" fill="#A5ADB1"/>
<path id="Fill 258" fill-rule="evenodd" clip-rule="evenodd" d="M46 53H44V50H36V53H34V48H46V53Z" fill="#A5ADB1"/>
<path id="Fill 259" fill-rule="evenodd" clip-rule="evenodd" d="M36 49H38V30H36V49Z" fill="#A5ADB1"/>
<path id="Fill 260" fill-rule="evenodd" clip-rule="evenodd" d="M42 49H44V30H42V49Z" fill="#A5ADB1"/>
<path id="Fill 261" fill-rule="evenodd" clip-rule="evenodd" d="M32 30H20V25H22V28H30V25H32V30Z" fill="#A5ADB1"/>
<path id="Fill 262" fill-rule="evenodd" clip-rule="evenodd" d="M32 53H30V50H22V53H20V48H32V53Z" fill="#A5ADB1"/>
<path id="Fill 263" fill-rule="evenodd" clip-rule="evenodd" d="M22 49H24V30H22V49Z" fill="#A5ADB1"/>
<path id="Fill 264" fill-rule="evenodd" clip-rule="evenodd" d="M28 49H30V30H28V49Z" fill="#A5ADB1"/>
<path id="Fill 265" fill-rule="evenodd" clip-rule="evenodd" d="M18 30H6V25H8V28H16V25H18V30Z" fill="#A5ADB1"/>
<path id="Fill 266" fill-rule="evenodd" clip-rule="evenodd" d="M18 53H16V50H8V53H6V48H18V53Z" fill="#A5ADB1"/>
<path id="Fill 267" fill-rule="evenodd" clip-rule="evenodd" d="M8 49H10V30H8V49Z" fill="#A5ADB1"/>
<path id="Fill 268" fill-rule="evenodd" clip-rule="evenodd" d="M14 49H16V30H14V49Z" fill="#A5ADB1"/>
<path id="Fill 269" fill-rule="evenodd" clip-rule="evenodd" d="M62 26H4V21H6V24H60V21H62V26Z" fill="#A5ADB1"/>
<path id="Fill 270" fill-rule="evenodd" clip-rule="evenodd" d="M33 10C31.346 10 30 11.346 30 13C30 14.654 31.346 16 33 16C34.654 16 36 14.654 36 13C36 11.346 34.654 10 33 10ZM33 18C30.243 18 28 15.757 28 13C28 10.243 30.243 8 33 8C35.757 8 38 10.243 38 13C38 15.757 35.757 18 33 18Z" fill="#003479"/>
<path id="Fill 271" fill-rule="evenodd" clip-rule="evenodd" d="M24 14H26V12H24V14Z" fill="#A5ADB1"/>
<path id="Fill 271_2" fill-rule="evenodd" clip-rule="evenodd" d="M1 58H65V56H1V58Z" fill="#A5ADB1"/>
<path id="Fill 272" fill-rule="evenodd" clip-rule="evenodd" d="M40 14H42V12H40V14Z" fill="#A5ADB1"/>
<path id="Fill 273" fill-rule="evenodd" clip-rule="evenodd" d="M6 56H60V54H6V56ZM4 58H62V52H4V58Z" fill="#A5ADB1"/>
</g>
</svg>
