<svg width="64" height="64" viewBox="0 0 64 64" fill="none" xmlns="http://www.w3.org/2000/svg">
<g id="Kansainv&#195;&#164;listyminen">
<path id="Fill 512" fill-rule="evenodd" clip-rule="evenodd" d="M7 33H14V31H7V33Z" fill="#A5ADB1"/>
<path id="Fill 513" fill-rule="evenodd" clip-rule="evenodd" d="M4 30C2.897 30 2 30.897 2 32C2 33.104 2.897 34 4 34C5.103 34 6 33.104 6 32C6 30.897 5.103 30 4 30ZM4 36C1.794 36 0 34.206 0 32C0 29.795 1.794 28 4 28C6.206 28 8 29.795 8 32C8 34.206 6.206 36 4 36Z" fill="#A5ADB1"/>
<path id="Fill 514" fill-rule="evenodd" clip-rule="evenodd" d="M15.4449 23.833L9.44495 19.833L10.5549 18.168L16.5549 22.168L15.4449 23.833Z" fill="#A5ADB1"/>
<path id="Fill 515" fill-rule="evenodd" clip-rule="evenodd" d="M8 16C6.897 16 6 16.897 6 18C6 19.104 6.897 20 8 20C9.103 20 10 19.104 10 18C10 16.897 9.103 16 8 16ZM8 22C5.794 22 4 20.206 4 18C4 15.795 5.794 14 8 14C10.206 14 12 15.795 12 18C12 20.206 10.206 22 8 22Z" fill="#A5ADB1"/>
<path id="Fill 516" fill-rule="evenodd" clip-rule="evenodd" d="M18 6C16.897 6 16 6.897 16 8C16 9.104 16.897 10 18 10C19.103 10 20 9.104 20 8C20 6.897 19.103 6 18 6ZM18 12C15.794 12 14 10.206 14 8C14 5.795 15.794 4 18 4C20.206 4 22 5.795 22 8C22 10.206 20.206 12 18 12Z" fill="#A5ADB1"/>
<path id="Fill 517" fill-rule="evenodd" clip-rule="evenodd" d="M22.168 16.555L18.168 10.555L19.832 9.44604L23.832 15.446L22.168 16.555Z" fill="#A5ADB1"/>
<path id="Fill 518" fill-rule="evenodd" clip-rule="evenodd" d="M50 33H57V31H50V33Z" fill="#A5ADB1"/>
<path id="Fill 519" fill-rule="evenodd" clip-rule="evenodd" d="M60 30C58.897 30 58 30.897 58 32C58 33.104 58.897 34 60 34C61.103 34 62 33.104 62 32C62 30.897 61.103 30 60 30ZM60 36C57.794 36 56 34.206 56 32C56 29.795 57.794 28 60 28C62.206 28 64 29.795 64 32C64 34.206 62.206 36 60 36Z" fill="#A5ADB1"/>
<path id="Fill 520" fill-rule="evenodd" clip-rule="evenodd" d="M48.5549 23.833L47.4449 22.168L53.4449 18.168L54.5549 19.833L48.5549 23.833Z" fill="#A5ADB1"/>
<path id="Fill 521" fill-rule="evenodd" clip-rule="evenodd" d="M56 16C54.897 16 54 16.897 54 18C54 19.104 54.897 20 56 20C57.103 20 58 19.104 58 18C58 16.897 57.103 16 56 16ZM56 22C53.794 22 52 20.206 52 18C52 15.795 53.794 14 56 14C58.206 14 60 15.795 60 18C60 20.206 58.206 22 56 22Z" fill="#A5ADB1"/>
<path id="Fill 522" fill-rule="evenodd" clip-rule="evenodd" d="M46 6C44.897 6 44 6.897 44 8C44 9.104 44.897 10 46 10C47.103 10 48 9.104 48 8C48 6.897 47.103 6 46 6ZM46 12C43.794 12 42 10.206 42 8C42 5.795 43.794 4 46 4C48.206 4 50 5.795 50 8C50 10.206 48.206 12 46 12Z" fill="#A5ADB1"/>
<path id="Fill 523" fill-rule="evenodd" clip-rule="evenodd" d="M31 14H33V7H31V14Z" fill="#A5ADB1"/>
<path id="Fill 524" fill-rule="evenodd" clip-rule="evenodd" d="M41.832 16.555L40.168 15.446L44.168 9.44604L45.832 10.555L41.832 16.555Z" fill="#A5ADB1"/>
<path id="Fill 525" fill-rule="evenodd" clip-rule="evenodd" d="M32 2C30.897 2 30 2.897 30 4C30 5.104 30.897 6 32 6C33.103 6 34 5.104 34 4C34 2.897 33.103 2 32 2ZM32 8C29.794 8 28 6.206 28 4C28 1.795 29.794 0 32 0C34.206 0 36 1.795 36 4C36 6.206 34.206 8 32 8Z" fill="#A5ADB1"/>
<path id="Fill 526" fill-rule="evenodd" clip-rule="evenodd" d="M53.4449 45.833L47.4449 41.833L48.5549 40.168L54.5549 44.168L53.4449 45.833Z" fill="#A5ADB1"/>
<path id="Fill 527" fill-rule="evenodd" clip-rule="evenodd" d="M56 44C54.897 44 54 44.897 54 46C54 47.104 54.897 48 56 48C57.103 48 58 47.104 58 46C58 44.897 57.103 44 56 44ZM56 50C53.794 50 52 48.206 52 46C52 43.795 53.794 42 56 42C58.206 42 60 43.795 60 46C60 48.206 58.206 50 56 50Z" fill="#A5ADB1"/>
<path id="Fill 528" fill-rule="evenodd" clip-rule="evenodd" d="M46 54C44.897 54 44 54.897 44 56C44 57.104 44.897 58 46 58C47.103 58 48 57.104 48 56C48 54.897 47.103 54 46 54ZM46 60C43.794 60 42 58.206 42 56C42 53.795 43.794 52 46 52C48.206 52 50 53.795 50 56C50 58.206 48.206 60 46 60Z" fill="#A5ADB1"/>
<path id="Fill 529" fill-rule="evenodd" clip-rule="evenodd" d="M44.168 54.555L40.168 48.555L41.832 47.446L45.832 53.446L44.168 54.555Z" fill="#A5ADB1"/>
<path id="Fill 530" fill-rule="evenodd" clip-rule="evenodd" d="M10.5549 45.833L9.44495 44.168L15.4449 40.168L16.5549 41.833L10.5549 45.833Z" fill="#A5ADB1"/>
<path id="Fill 531" fill-rule="evenodd" clip-rule="evenodd" d="M8 44C6.897 44 6 44.897 6 46C6 47.104 6.897 48 8 48C9.103 48 10 47.104 10 46C10 44.897 9.103 44 8 44ZM8 50C5.794 50 4 48.206 4 46C4 43.795 5.794 42 8 42C10.206 42 12 43.795 12 46C12 48.206 10.206 50 8 50Z" fill="#A5ADB1"/>
<path id="Fill 532" fill-rule="evenodd" clip-rule="evenodd" d="M18 54C16.897 54 16 54.897 16 56C16 57.104 16.897 58 18 58C19.103 58 20 57.104 20 56C20 54.897 19.103 54 18 54ZM18 60C15.794 60 14 58.206 14 56C14 53.795 15.794 52 18 52C20.206 52 22 53.795 22 56C22 58.206 20.206 60 18 60Z" fill="#A5ADB1"/>
<path id="Fill 533" fill-rule="evenodd" clip-rule="evenodd" d="M31 57H33V50H31V57Z" fill="#A5ADB1"/>
<path id="Fill 534" fill-rule="evenodd" clip-rule="evenodd" d="M19.832 54.555L18.168 53.446L22.168 47.446L23.832 48.555L19.832 54.555Z" fill="#A5ADB1"/>
<path id="Fill 535" fill-rule="evenodd" clip-rule="evenodd" d="M32 58C30.897 58 30 58.897 30 60C30 61.104 30.897 62 32 62C33.103 62 34 61.104 34 60C34 58.897 33.103 58 32 58ZM32 64C29.794 64 28 62.206 28 60C28 57.795 29.794 56 32 56C34.206 56 36 57.795 36 60C36 62.206 34.206 64 32 64Z" fill="#A5ADB1"/>
<path id="Fill 536" fill-rule="evenodd" clip-rule="evenodd" d="M32 18C24.28 18 18 24.281 18 32C18 39.72 24.28 46 32 46C39.72 46 46 39.72 46 32C46 24.281 39.72 18 32 18ZM16 32C16 23.178 23.178 16 32 16C40.822 16 48 23.178 48 32C48 40.823 40.822 48 32 48C23.178 48 16 40.823 16 32Z" fill="#003479"/>
<path id="Fill 537" fill-rule="evenodd" clip-rule="evenodd" d="M17 33H47V31H17V33Z" fill="#003479"/>
<path id="Fill 538" fill-rule="evenodd" clip-rule="evenodd" d="M20 24H44V22H20V24Z" fill="#003479"/>
<path id="Fill 539" fill-rule="evenodd" clip-rule="evenodd" d="M20 42H44V40H20V42Z" fill="#003479"/>
<path id="Fill 540" fill-rule="evenodd" clip-rule="evenodd" d="M32 18C28.206 18 25 24.412 25 32C25 39.589 28.206 46 32 46C35.794 46 39 39.589 39 32C39 24.412 35.794 18 32 18ZM32 48C26.953 48 23 40.973 23 32C23 23.028 26.953 16 32 16C37.047 16 41 23.028 41 32C41 40.973 37.047 48 32 48Z" fill="#003479"/>
<path id="Fill 541" fill-rule="evenodd" clip-rule="evenodd" d="M31 47H33V17H31V47Z" fill="#003479"/>
</g>
</svg>
