<svg width="64" height="42" viewBox="0 0 64 42" fill="none" xmlns="http://www.w3.org/2000/svg">
<g id="Kulttuuri liikunta ulkoilu ja matkailu">
<path id="Fill 472" fill-rule="evenodd" clip-rule="evenodd" d="M64 26.0006C61.915 26.0006 60.076 24.9326 59 23.3136C57.924 24.9326 56.085 26.0006 54 26.0006C51.915 26.0006 50.076 24.9326 49 23.3136C47.924 24.9326 46.085 26.0006 44 26.0006C41.915 26.0006 40.076 24.9326 39 23.3136C37.924 24.9326 36.085 26.0006 34 26.0006C31.915 26.0006 30.076 24.9326 29 23.3136C27.924 24.9326 26.085 26.0006 24 26.0006C21.915 26.0006 20.076 24.9326 19 23.3136C17.924 24.9326 16.085 26.0006 14 26.0006C11.915 26.0006 10.076 24.9326 9 23.3136C7.924 24.9326 6.085 26.0006 4 26.0006V24.0006C6.206 24.0006 8 22.2066 8 20.0006H10C10 22.2066 11.794 24.0006 14 24.0006C16.206 24.0006 18 22.2066 18 20.0006H20C20 22.2066 21.794 24.0006 24 24.0006C26.206 24.0006 28 22.2066 28 20.0006H30C30 22.2066 31.794 24.0006 34 24.0006C36.206 24.0006 38 22.2066 38 20.0006H40C40 22.2066 41.794 24.0006 44 24.0006C46.206 24.0006 48 22.2066 48 20.0006H50C50 22.2066 51.794 24.0006 54 24.0006C56.206 24.0006 58 22.2066 58 20.0006H60C60 22.2066 61.794 24.0006 64 24.0006V26.0006Z" fill="#A5ADB1"/>
<path id="Fill 473" fill-rule="evenodd" clip-rule="evenodd" d="M60 34.0006C57.915 34.0006 56.076 32.9326 55 31.3136C53.924 32.9326 52.085 34.0006 50 34.0006C47.915 34.0006 46.076 32.9326 45 31.3136C43.924 32.9326 42.085 34.0006 40 34.0006C37.915 34.0006 36.076 32.9326 35 31.3136C33.924 32.9326 32.085 34.0006 30 34.0006C27.915 34.0006 26.076 32.9326 25 31.3136C23.924 32.9326 22.085 34.0006 20 34.0006C17.915 34.0006 16.076 32.9326 15 31.3136C13.924 32.9326 12.085 34.0006 10 34.0006C7.915 34.0006 6.076 32.9326 5 31.3136C3.924 32.9326 2.085 34.0006 0 34.0006V32.0006C2.206 32.0006 4 30.2066 4 28.0006H6C6 30.2066 7.794 32.0006 10 32.0006C12.206 32.0006 14 30.2066 14 28.0006H16C16 30.2066 17.794 32.0006 20 32.0006C22.206 32.0006 24 30.2066 24 28.0006H26C26 30.2066 27.794 32.0006 30 32.0006C32.206 32.0006 34 30.2066 34 28.0006H36C36 30.2066 37.794 32.0006 40 32.0006C42.206 32.0006 44 30.2066 44 28.0006H46C46 30.2066 47.794 32.0006 50 32.0006C52.206 32.0006 54 30.2066 54 28.0006H56C56 30.2066 57.794 32.0006 60 32.0006V34.0006Z" fill="#A5ADB1"/>
<path id="Fill 474" fill-rule="evenodd" clip-rule="evenodd" d="M64 42.0006C61.915 42.0006 60.076 40.9326 59 39.3136C57.924 40.9326 56.085 42.0006 54 42.0006C51.915 42.0006 50.076 40.9326 49 39.3136C47.924 40.9326 46.085 42.0006 44 42.0006C41.915 42.0006 40.076 40.9326 39 39.3136C37.924 40.9326 36.085 42.0006 34 42.0006C31.915 42.0006 30.076 40.9326 29 39.3136C27.924 40.9326 26.085 42.0006 24 42.0006C21.915 42.0006 20.076 40.9326 19 39.3136C17.924 40.9326 16.085 42.0006 14 42.0006C11.915 42.0006 10.076 40.9326 9 39.3136C7.924 40.9326 6.085 42.0006 4 42.0006V40.0006C6.206 40.0006 8 38.2066 8 36.0006H10C10 38.2066 11.794 40.0006 14 40.0006C16.206 40.0006 18 38.2066 18 36.0006H20C20 38.2066 21.794 40.0006 24 40.0006C26.206 40.0006 28 38.2066 28 36.0006H30C30 38.2066 31.794 40.0006 34 40.0006C36.206 40.0006 38 38.2066 38 36.0006H40C40 38.2066 41.794 40.0006 44 40.0006C46.206 40.0006 48 38.2066 48 36.0006H50C50 38.2066 51.794 40.0006 54 40.0006C56.206 40.0006 58 38.2066 58 36.0006H60C60 38.2066 61.794 40.0006 64 40.0006V42.0006Z" fill="#A5ADB1"/>
<path id="Fill 475" fill-rule="evenodd" clip-rule="evenodd" d="M13.4 19.9166L12.6 18.0846L28.6 11.0846L29.4 12.9166L13.4 19.9166Z" fill="#003479"/>
<path id="Fill 476" fill-rule="evenodd" clip-rule="evenodd" d="M30.2931 14.7076L22.6571 7.0716L11.1641 8.9866L10.8361 7.0146L22.8361 5.0146C23.1511 4.9626 23.4781 5.0636 23.7071 5.2936L31.7071 13.2936L30.2931 14.7076Z" fill="#003479"/>
<path id="Fill 477" fill-rule="evenodd" clip-rule="evenodd" d="M47 8.00061C45.346 8.00061 44 9.34661 44 11.0006C44 12.6546 45.346 14.0006 47 14.0006C48.654 14.0006 50 12.6546 50 11.0006C50 9.34661 48.654 8.00061 47 8.00061ZM47 16.0006C44.243 16.0006 42 13.7576 42 11.0006C42 8.24361 44.243 6.00061 47 6.00061C49.757 6.00061 52 8.24361 52 11.0006C52 13.7576 49.757 16.0006 47 16.0006Z" fill="#003479"/>
<path id="Fill 478" fill-rule="evenodd" clip-rule="evenodd" d="M40.081 17.3946L37.194 10.6586L24.786 2.06861L11.21 4.97861L10.79 3.02261L24.79 0.0226114C25.063 -0.0363886 25.342 0.0216114 25.569 0.178611L38.569 9.17861C38.724 9.28561 38.845 9.43461 38.919 9.60661L41.919 16.6066L40.081 17.3946Z" fill="#003479"/>
</g>
</svg>
