<svg width="41" height="62" viewBox="0 0 41 62" fill="none" xmlns="http://www.w3.org/2000/svg">
<g id="Group 2">
<path id="Stroke 1" fill-rule="evenodd" clip-rule="evenodd" d="M13 45.5C13 46.328 12.328 47 11.5 47C10.672 47 10 46.328 10 45.5C10 44.672 10.672 44 11.5 44C12.328 44 13 44.672 13 45.5Z" stroke="#A5ADB1" stroke-width="2" stroke-linecap="round" stroke-linejoin="round"/>
<path id="Stroke 3" fill-rule="evenodd" clip-rule="evenodd" d="M32 45.5C32 46.328 31.328 47 30.5 47C29.672 47 29 46.328 29 45.5C29 44.672 29.672 44 30.5 44C31.328 44 32 44.672 32 45.5Z" stroke="#A5ADB1" stroke-width="2" stroke-linecap="round" stroke-linejoin="round"/>
<path id="Stroke 7" d="M31 54.5164L39 60.2312" stroke="#A5ADB1" stroke-width="2" stroke-linecap="square" stroke-linejoin="round"/>
<path id="Stroke 7_2" d="M2 60.2311L10 54.5164" stroke="#A5ADB1" stroke-width="2" stroke-linecap="square" stroke-linejoin="round"/>
<path id="Stroke 9" fill-rule="evenodd" clip-rule="evenodd" d="M31.6015 54H9.39851C5.31436 54 2 50.6419 2 46.5038V16.4962C2 12.3581 5.31436 9 9.39851 9H31.6015C35.6881 9 39 12.3581 39 16.4962V46.5038C39 50.6419 35.6881 54 31.6015 54Z" stroke="#003479" stroke-width="2" stroke-linecap="round" stroke-linejoin="round"/>
<path id="Stroke 11" d="M3 36.5H39" stroke="#003479" stroke-width="2" stroke-linecap="round" stroke-linejoin="round"/>
<path id="Stroke 13" d="M3 19.5H39" stroke="#003479" stroke-width="2" stroke-linecap="round" stroke-linejoin="round"/>
<path id="Stroke 15" d="M12 1.5H29" stroke="#A5ADB1" stroke-width="2" stroke-linecap="square" stroke-linejoin="round"/>
</g>
</svg>
