<svg width="64" height="58" viewBox="0 0 64 58" fill="none" xmlns="http://www.w3.org/2000/svg">
<g id="Luonto">
<path id="Shape" fill-rule="evenodd" clip-rule="evenodd" d="M0 57.1H64V25.1H62.6C56.2 25.1 52 25.6 50 26.6L51.2 29C51.9 28.6 54.2 27.9 61.3 27.8V54.3H46.1C39.6 44 21 33 1.3 33H0V57.1ZM42.9 54.3H2.7V35.7C20.9 36.1 36.8 46.1 42.9 54.3Z" fill="#A5ADB1"/>
<path id="Shape_2" d="M24.9 39.3L23 37.4C28.1 32.3 37 29 39.9 29V31.7C37.8 31.8 29.6 34.6 24.9 39.3Z" fill="#A5ADB1"/>
<path id="Shape_3" fill-rule="evenodd" clip-rule="evenodd" d="M10.6 7.60002C10.6 11.3 13.6 14.3 17.3 14.3C21 14.3 24 11.4 24 7.70002C24 4.00002 21 1.00002 17.3 0.900024C13.6 0.900024 10.6 3.90002 10.6 7.60002ZM13.3 7.80002C13.3 5.60002 15.1 3.80002 17.3 3.80002C19.5 3.80002 21.3 5.60002 21.3 7.80002C21.3 10 19.5 11.8 17.3 11.8C15.1 11.8 13.3 10 13.3 7.80002Z" fill="#003479"/>
<path id="Shape_4" fill-rule="evenodd" clip-rule="evenodd" d="M38.6 30.3001C38.6 35.1001 40.6 37.0001 45.3 37.0001C50.1 37.0001 52 35.1001 52 30.3001C52 25.7001 47.1 16.1001 46.5 15.0001L45.3 12.7001L44.1 15.0001C43.5 16.1001 38.6 25.7001 38.6 30.3001ZM41.3 30.5001C41.3 27.8001 43.6 22.4001 45.3 18.8001C47 22.2001 49.3 27.8001 49.3 30.5001C49.3 33.8001 48.6 34.5001 45.3 34.5001C42 34.5001 41.3 33.8001 41.3 30.5001Z" fill="#003479"/>
<path id="Rectangle-path" d="M44 29H46.7V42.3H44V29Z" fill="#003479"/>
</g>
</svg>
