<svg width="64" height="64" viewBox="0 0 64 64" fill="none" xmlns="http://www.w3.org/2000/svg">
<g id="Liikenne ja ymp&#195;&#164;rist&#195;&#182;">
<path id="Fill 38" fill-rule="evenodd" clip-rule="evenodd" d="M55 37H42V35H55C57.921 35 60.936 33.185 62 32.477V31.523C60.936 30.815 57.921 29 55 29H12C11.734 29 11.48 28.895 11.293 28.707L6.58602 24H5.25702L7.79602 35H19V37H7.00002C6.53402 37 6.13002 36.679 6.02502 36.225L3.02502 23.225C2.95702 22.928 3.02702 22.616 3.21802 22.377C3.40702 22.139 3.69502 22 4.00002 22H7.00002C7.26602 22 7.52002 22.105 7.70702 22.293L12.414 27H55C59.284 27 63.426 30.069 63.6 30.2C63.852 30.389 64 30.685 64 31V33C64 33.315 63.852 33.611 63.6 33.8C63.426 33.931 59.284 37 55 37Z" fill="#003479"/>
<path id="Fill 39" fill-rule="evenodd" clip-rule="evenodd" d="M27.4139 27H39.1409L24.7409 19H19.4139L27.4139 27ZM42.9999 29H26.9999C26.7339 29 26.4799 28.895 26.2929 28.707L16.2929 18.707C16.0069 18.421 15.9209 17.991 16.0759 17.617C16.2299 17.244 16.5959 17 16.9999 17H24.9999C25.1699 17 25.3369 17.043 25.4849 17.126L43.4849 27.126C43.8839 27.347 44.0819 27.81 43.9679 28.251C43.8539 28.692 43.4559 29 42.9999 29Z" fill="#003479"/>
<path id="Fill 40" fill-rule="evenodd" clip-rule="evenodd" d="M19.4139 41H24.7409L39.1409 33H27.4139L19.4139 41ZM24.9999 43H16.9999C16.5959 43 16.2299 42.756 16.0759 42.383C15.9209 42.009 16.0069 41.579 16.2929 41.293L26.2929 31.293C26.4799 31.105 26.7339 31 26.9999 31H42.9999C43.4559 31 43.8539 31.308 43.9679 31.749C44.0819 32.19 43.8839 32.653 43.4849 32.874L25.4849 42.874C25.3369 42.957 25.1699 43 24.9999 43Z" fill="#003479"/>
<path id="Fill 41" fill-rule="evenodd" clip-rule="evenodd" d="M50 33H52V31H50V33Z" fill="#A5ADB1"/>
<path id="Fill 42" fill-rule="evenodd" clip-rule="evenodd" d="M46 33H48V31H46V33Z" fill="#A5ADB1"/>
<path id="Fill 43" fill-rule="evenodd" clip-rule="evenodd" d="M20 33H22V31H20V33Z" fill="#A5ADB1"/>
<path id="Fill 44" fill-rule="evenodd" clip-rule="evenodd" d="M16 33H18V31H16V33Z" fill="#A5ADB1"/>
<path id="Fill 45" fill-rule="evenodd" clip-rule="evenodd" d="M12 33H14V31H12V33Z" fill="#A5ADB1"/>
<path id="Fill 46" fill-rule="evenodd" clip-rule="evenodd" d="M6 43H14V41H6V43Z" fill="#A5ADB1"/>
<path id="Fill 47" fill-rule="evenodd" clip-rule="evenodd" d="M0 43H4V41H0V43Z" fill="#A5ADB1"/>
<path id="Fill 48" fill-rule="evenodd" clip-rule="evenodd" d="M10 19H14V17H10V19Z" fill="#A5ADB1"/>
<path id="Fill 49" fill-rule="evenodd" clip-rule="evenodd" d="M0 19H8V17H0V19Z" fill="#A5ADB1"/>
<path id="Fill 50" fill-rule="evenodd" clip-rule="evenodd" d="M57 23H55V22C55 17.589 51.411 14 47 14H43.998L45.2 12.399C45.724 11.703 46 10.874 46 10C46 7.794 44.206 6 42 6C41.126 6 40.296 6.276 39.601 6.799L38.821 7.386L38.216 6.62C35.791 3.555 32.69 2 29 2C22.935 2 18 6.935 18 13H16C16 5.832 21.832 0 29 0C32.983 0 36.494 1.617 39.206 4.688C40.062 4.236 41.012 4 42 4C45.309 4 48 6.691 48 10C48 10.699 47.882 11.379 47.652 12.021C52.863 12.358 57 16.705 57 22V23Z" fill="#A5ADB1"/>
<path id="Fill 51" fill-rule="evenodd" clip-rule="evenodd" d="M32.9401 48.339L31.0601 47.661C31.7801 45.658 34.2901 41 42.0001 41C46.0631 41 49.8681 42.599 52.7131 45.501L51.2851 46.901C48.8191 44.385 45.5211 43 42.0001 43C35.7901 43 33.6591 46.345 32.9401 48.339Z" fill="#A5ADB1"/>
<path id="Fill 52" fill-rule="evenodd" clip-rule="evenodd" d="M19 60H17C17 54.486 21.486 50 27 50C29.465 50 31.833 50.905 33.669 52.548L32.335 54.038C30.867 52.724 28.972 52 27 52C22.589 52 19 55.589 19 60Z" fill="#A5ADB1"/>
<path id="Fill 53" fill-rule="evenodd" clip-rule="evenodd" d="M56 60V58C59.309 58 62 55.309 62 52C62 48.691 59.309 46 56 46C52.691 46 50 48.691 50 52H48C48 47.589 51.589 44 56 44C60.411 44 64 47.589 64 52C64 56.411 60.411 60 56 60Z" fill="#A5ADB1"/>
<path id="Fill 54" fill-rule="evenodd" clip-rule="evenodd" d="M42 60H56V58H42V60Z" fill="#A5ADB1"/>
<path id="Fill 55" fill-rule="evenodd" clip-rule="evenodd" d="M36 60H40V58H36V60Z" fill="#A5ADB1"/>
<path id="Fill 56" fill-rule="evenodd" clip-rule="evenodd" d="M6 64H10V62H6V64Z" fill="#A5ADB1"/>
<path id="Fill 57" fill-rule="evenodd" clip-rule="evenodd" d="M6 64C2.691 64 0 61.309 0 58C0 54.929 2.318 52.39 5.297 52.041C6.653 48.914 9.921 47 14 47C18.432 47 22 50.282 22 53H20C20 51.595 17.525 49 14 49C10.538 49 7.836 50.654 6.948 53.316L6.721 54H6C3.794 54 2 55.794 2 58C2 60.206 3.794 62 6 62V64Z" fill="#A5ADB1"/>
</g>
</svg>
