<svg width="60" height="64" viewBox="0 0 60 64" fill="none" xmlns="http://www.w3.org/2000/svg">
<g id="Talous rahoitus ja verotus">
<path id="Combined Shape" fill-rule="evenodd" clip-rule="evenodd" d="M15.6736 39C16.7971 41.3649 19.2076 43 22 43C24.74 43 27.107 41.422 28.256 39.128L30.043 40.021C28.565 42.971 25.523 45 22 45C18.0809 45 14.7474 42.4958 13.512 39H11V37H13.0549C13.0186 36.6717 13 36.338 13 36C13 35.662 13.0186 35.3283 13.0549 35H11V33H13.512C14.7474 29.5042 18.0809 27 22 27C25.523 27 28.565 29.029 30.043 31.978L28.255 32.872C27.106 30.578 24.74 29 22 29C19.2076 29 16.7971 30.6351 15.6736 33H21V35H15.0709C15.0242 35.3266 15 35.6605 15 36C15 36.3395 15.0242 36.6734 15.0709 37H21V39H15.6736Z" fill="#003479"/>
<path id="Fill 291" fill-rule="evenodd" clip-rule="evenodd" d="M26 64H7C3.14 64 0 60.86 0 57V41C0 23.361 7.722 19.239 12.832 16.512C14.262 15.749 15.496 15.09 16.293 14.293L17.707 15.707C16.7 16.714 15.344 17.438 13.774 18.276C8.805 20.928 2 24.561 2 41V57C2 59.757 4.243 62 7 62H26V64Z" fill="#A5ADB1"/>
<path id="Fill 292" fill-rule="evenodd" clip-rule="evenodd" d="M44 40H42C42 23.802 35.328 20.598 30.456 18.258C28.86 17.492 27.354 16.768 26.293 15.707L27.707 14.293C28.527 15.113 29.822 15.735 31.321 16.455C36.37 18.879 44 22.544 44 40Z" fill="#A5ADB1"/>
<path id="Fill 293" fill-rule="evenodd" clip-rule="evenodd" d="M17 12V14H27.001L27 12H17ZM27 16H17C15.897 16 15 15.103 15 14V12C15 10.897 15.897 10 17 10H27C28.103 10 29 10.897 29 12V14C29 15.103 28.103 16 27 16Z" fill="#A5ADB1"/>
<path id="Fill 294" fill-rule="evenodd" clip-rule="evenodd" d="M18.6179 10H25.3819L28.6579 3.447L25.9999 2.118L22.4469 3.895C22.1659 4.035 21.8339 4.035 21.5529 3.895L17.9999 2.118L15.3419 3.447L18.6179 10ZM25.9999 12H17.9999C17.6209 12 17.2749 11.786 17.1049 11.447L13.1049 3.447C12.8579 2.953 13.0589 2.353 13.5529 2.105L17.5529 0.105C17.8339 -0.035 18.1659 -0.035 18.4469 0.105L21.9999 1.882L25.5529 0.105C25.8339 -0.035 26.1659 -0.035 26.4469 0.105L30.4469 2.105C30.9409 2.353 31.1419 2.953 30.8939 3.447L26.8949 11.447C26.7249 11.786 26.3789 12 25.9999 12Z" fill="#A5ADB1"/>
<path id="Fill 295" fill-rule="evenodd" clip-rule="evenodd" d="M28 14V12C29.654 12 31 10.654 31 9H33C33 11.757 30.757 14 28 14Z" fill="#A5ADB1"/>
<path id="Fill 296" fill-rule="evenodd" clip-rule="evenodd" d="M16 14C13.243 14 11 11.757 11 9H13C13 10.654 14.346 12 16 12V14Z" fill="#A5ADB1"/>
<path id="Fill 298" fill-rule="evenodd" clip-rule="evenodd" d="M30 60V62H38.001L38 60H30ZM38 64H30C28.897 64 28 63.103 28 62V60C28 58.897 28.897 58 30 58H38C39.103 58 40 58.897 40 60V62C40 63.103 39.103 64 38 64Z" fill="#A5ADB1"/>
<path id="Fill 299" fill-rule="evenodd" clip-rule="evenodd" d="M30 56V58H38.001L38 56H30ZM38 60H30C28.897 60 28 59.103 28 58V56C28 54.897 28.897 54 30 54H38C39.103 54 40 54.897 40 56V58C40 59.103 39.103 60 38 60Z" fill="#A5ADB1"/>
<path id="Fill 300" fill-rule="evenodd" clip-rule="evenodd" d="M30 52V54H38.001L38 52H30ZM38 56H30C28.897 56 28 55.103 28 54V52C28 50.897 28.897 50 30 50H38C39.103 50 40 50.897 40 52V54C40 55.103 39.103 56 38 56Z" fill="#A5ADB1"/>
<path id="Fill 301" fill-rule="evenodd" clip-rule="evenodd" d="M40 60V62H48.001L48 60H40ZM48 64H40C38.897 64 38 63.103 38 62V60C38 58.897 38.897 58 40 58H48C49.103 58 50 58.897 50 60V62C50 63.103 49.103 64 48 64Z" fill="#A5ADB1"/>
<path id="Fill 302" fill-rule="evenodd" clip-rule="evenodd" d="M40 56V58H48.001L48 56H40ZM48 60H40C38.897 60 38 59.103 38 58V56C38 54.897 38.897 54 40 54H48C49.103 54 50 54.897 50 56V58C50 59.103 49.103 60 48 60Z" fill="#A5ADB1"/>
<path id="Fill 303" fill-rule="evenodd" clip-rule="evenodd" d="M40 52V54H48.001L48 52H40ZM48 56H40C38.897 56 38 55.103 38 54V52C38 50.897 38.897 50 40 50H48C49.103 50 50 50.897 50 52V54C50 55.103 49.103 56 48 56Z" fill="#A5ADB1"/>
<path id="Fill 304" fill-rule="evenodd" clip-rule="evenodd" d="M40 48V50H48.001L48 48H40ZM48 52H40C38.897 52 38 51.103 38 50V48C38 46.897 38.897 46 40 46H48C49.103 46 50 46.897 50 48V50C50 51.103 49.103 52 48 52Z" fill="#A5ADB1"/>
<path id="Fill 305" fill-rule="evenodd" clip-rule="evenodd" d="M40 44V46H48.001L48 44H40ZM48 48H40C38.897 48 38 47.103 38 46V44C38 42.897 38.897 42 40 42H48C49.103 42 50 42.897 50 44V46C50 47.103 49.103 48 48 48Z" fill="#A5ADB1"/>
<path id="Fill 306" fill-rule="evenodd" clip-rule="evenodd" d="M50 60V62H58.001L58 60H50ZM58 64H50C48.897 64 48 63.103 48 62V60C48 58.897 48.897 58 50 58H58C59.103 58 60 58.897 60 60V62C60 63.103 59.103 64 58 64Z" fill="#A5ADB1"/>
<path id="Fill 307" fill-rule="evenodd" clip-rule="evenodd" d="M50 56V58H58.001L58 56H50ZM58 60H50C48.897 60 48 59.103 48 58V56C48 54.897 48.897 54 50 54H58C59.103 54 60 54.897 60 56V58C60 59.103 59.103 60 58 60Z" fill="#A5ADB1"/>
<path id="Fill 308" fill-rule="evenodd" clip-rule="evenodd" d="M50 52V54H58.001L58 52H50ZM58 56H50C48.897 56 48 55.103 48 54V52C48 50.897 48.897 50 50 50H58C59.103 50 60 50.897 60 52V54C60 55.103 59.103 56 58 56Z" fill="#A5ADB1"/>
<path id="Fill 309" fill-rule="evenodd" clip-rule="evenodd" d="M50 48V50H58.001L58 48H50ZM58 52H50C48.897 52 48 51.103 48 50V48C48 46.897 48.897 46 50 46H58C59.103 46 60 46.897 60 48V50C60 51.103 59.103 52 58 52Z" fill="#A5ADB1"/>
<path id="Fill 310" fill-rule="evenodd" clip-rule="evenodd" d="M50 44V46H58.001L58 44H50ZM58 48H50C48.897 48 48 47.103 48 46V44C48 42.897 48.897 42 50 42H58C59.103 42 60 42.897 60 44V46C60 47.103 59.103 48 58 48Z" fill="#A5ADB1"/>
<path id="Fill 311" fill-rule="evenodd" clip-rule="evenodd" d="M50 40V42H58.001L58 40H50ZM58 44H50C48.897 44 48 43.103 48 42V40C48 38.897 48.897 38 50 38H58C59.103 38 60 38.897 60 40V42C60 43.103 59.103 44 58 44Z" fill="#A5ADB1"/>
<path id="Fill 312" fill-rule="evenodd" clip-rule="evenodd" d="M50 36V38H58.001L58 36H50ZM58 40H50C48.897 40 48 39.103 48 38V36C48 34.897 48.897 34 50 34H58C59.103 34 60 34.897 60 36V38C60 39.103 59.103 40 58 40Z" fill="#A5ADB1"/>
<path id="Fill 313" fill-rule="evenodd" clip-rule="evenodd" d="M50 26V28H58.001L58 26H50ZM58 30H50C48.897 30 48 29.103 48 28V26C48 24.897 48.897 24 50 24H58C59.103 24 60 24.897 60 26V28C60 29.103 59.103 30 58 30Z" fill="#003479"/>
<path id="Fill 314" fill-rule="evenodd" clip-rule="evenodd" d="M51 22H53V14H51V22Z" fill="#003479"/>
<path id="Fill 315" fill-rule="evenodd" clip-rule="evenodd" d="M55 16H57V8H55V16Z" fill="#003479"/>
<path id="Fill 316" fill-rule="evenodd" clip-rule="evenodd" d="M51 12H53V10H51V12Z" fill="#003479"/>
<path id="Fill 317" fill-rule="evenodd" clip-rule="evenodd" d="M55 20H57V18H55V20Z" fill="#003479"/>
</g>
</svg>
