<svg width="58" height="64" viewBox="0 0 58 64" fill="none" xmlns="http://www.w3.org/2000/svg">
<g id="Terveys ja sairaanhoito">
<path id="Fill 125" fill-rule="evenodd" clip-rule="evenodd" d="M10 64H12V56H10V64Z" fill="#A5ADB1"/>
<path id="Fill 126" fill-rule="evenodd" clip-rule="evenodd" d="M46 64H48V59L46 60V64Z" fill="#A5ADB1"/>
<path id="Fill 127" fill-rule="evenodd" clip-rule="evenodd" d="M2 64H0V49C0 42.512 6.871 39.328 13.616 37.074L19.496 34.134C20.654 33.354 21.814 32.331 22 31.928V29H24V32C24 33.269 22.126 34.784 20.555 35.832C20.521 35.855 20.484 35.876 20.447 35.895L14.447 38.895C14.405 38.916 14.361 38.934 14.316 38.948C8.226 40.979 2 43.761 2 49" fill="#A5ADB1"/>
<path id="Fill 128" fill-rule="evenodd" clip-rule="evenodd" d="M58 64H56V49C56 43.761 49.774 40.979 43.684 38.948C43.639 38.934 43.595 38.916 43.553 38.895L37.553 35.895C37.516 35.876 37.479 35.855 37.445 35.832C35.874 34.784 34 33.269 34 32V29H36V31.928C36.186 32.331 37.346 33.354 38.504 34.134L44.384 37.074C51.129 39.328 58 42.512 58 49" fill="#A5ADB1"/>
<path id="Fill 129" fill-rule="evenodd" clip-rule="evenodd" d="M18 18H19V16H18V18Z" fill="#A5ADB1"/>
<path id="Fill 130" fill-rule="evenodd" clip-rule="evenodd" d="M29 33C21.68 33 18.174 25.051 18.006 19.421L17.293 18.707C17.105 18.52 17 18.266 17 18V14H19V17.586L19.707 18.293C19.895 18.48 20 18.734 20 19C20 23.84 22.86 31 29 31C35.14 31 38 23.84 38 19C38 18.734 38.105 18.48 38.293 18.293L39 17.586V14H41V18C41 18.266 40.895 18.52 40.707 18.707L39.994 19.421C39.826 25.051 36.32 33 29 33Z" fill="#A5ADB1"/>
<path id="Fill 131" fill-rule="evenodd" clip-rule="evenodd" d="M18.4139 12H39.5859L39.9389 11.646L39.0099 5.142C38.8809 4.433 38.2659 2 35.9999 2H21.9999C19.9999 2 19.2459 4.018 18.9759 5.22L18.0609 11.646L18.4139 12ZM39.9999 14H17.9999C17.7339 14 17.4799 13.895 17.2929 13.707L16.2929 12.707C16.0699 12.484 15.9659 12.17 16.0099 11.858L17.0099 4.858C17.6989 1.787 19.5589 0 21.9999 0H35.9999C38.5369 0 40.4469 1.848 40.9839 4.822L41.9899 11.858C42.0339 12.17 41.9299 12.484 41.7069 12.707L40.7069 13.707C40.5199 13.895 40.2659 14 39.9999 14Z" fill="#A5ADB1"/>
<path id="Fill 132" fill-rule="evenodd" clip-rule="evenodd" d="M28 10H30V4H28V10Z" fill="#003479"/>
<path id="Fill 133" fill-rule="evenodd" clip-rule="evenodd" d="M26 8H32V6H26V8Z" fill="#003479"/>
<path id="Fill 136" fill-rule="evenodd" clip-rule="evenodd" d="M29 40C23.299 40 19 37.851 19 35H21C21 36.224 24.116 38 29 38C33.884 38 37 36.224 37 35H39C39 37.851 34.701 40 29 40Z" fill="#A5ADB1"/>
<path id="Fill 304" fill-rule="evenodd" clip-rule="evenodd" d="M28.53 47.883C27.855 47.524 13 37.968 13 27V20C13 17.243 14.243 16 17 16V18C15.346 18 15 18.346 15 20V27C15 35.792 26.409 44.369 29 45.854C31.591 44.369 43 35.792 43 27V20C43 18.346 42.654 18 41 18V16C43.757 16 45 17.243 45 20V27C45 37.968 30.145 47.524 29.47 47.883C29.322 47.961 29.161 48 29 48C28.839 48 28.678 47.961 28.53 47.883Z" fill="#003479"/>
<path id="Fill 308" fill-rule="evenodd" clip-rule="evenodd" d="M30 48C30 53.514 34.486 58 40 58C45.514 58 50 53.514 50 48V35H52L52 48C52 54.617 46.617 60 40 60C33.383 60 28 54.617 28 48H30Z" fill="#003479"/>
<path id="Fill 305" fill-rule="evenodd" clip-rule="evenodd" d="M51 30C49.897 30 49 30.897 49 32C49 33.103 49.897 34 51 34C52.103 34 53 33.103 53 32C53 30.897 52.103 30 51 30ZM51 36C48.794 36 47 34.206 47 32C47 29.794 48.794 28 51 28C53.206 28 55 29.794 55 32C55 34.206 53.206 36 51 36Z" fill="#003479"/>
</g>
</svg>
