<svg width="64" height="64" viewBox="0 0 64 64" fill="none" xmlns="http://www.w3.org/2000/svg">
<g id="Yritystoiminnan aloittaminen">
<path id="Fill 234" fill-rule="evenodd" clip-rule="evenodd" d="M11.2719 41.858L22.1419 52.728C27.3249 49.401 61.0729 26.805 61.9809 2.019C37.1949 2.927 14.5989 36.675 11.2719 41.858ZM21.9999 55C21.7419 55 21.4859 54.9 21.2929 54.707L9.29294 42.707C8.96594 42.381 8.90594 41.873 9.14594 41.479C10.1789 39.786 34.7629 0 62.9999 0C63.5519 0 63.9999 0.447 63.9999 1C63.9999 29.237 24.2139 53.821 22.5209 54.854C22.3589 54.952 22.1789 55 21.9999 55Z" fill="#A5ADB1"/>
<path id="Fill 235" fill-rule="evenodd" clip-rule="evenodd" d="M17 56C16.744 56 16.488 55.902 16.293 55.707L8.29301 47.707C7.90201 47.316 7.90201 46.684 8.29301 46.293L11.293 43.293L12.707 44.707L10.414 47L17 53.586L19.293 51.293L20.707 52.707L17.707 55.707C17.512 55.902 17.256 56 17 56Z" fill="#A5ADB1"/>
<path id="Fill 236" fill-rule="evenodd" clip-rule="evenodd" d="M1 64C0.448 64 0 63.553 0 63C0 62.697 0.0710001 55.515 6.293 49.293L7.707 50.707C3.456 54.958 2.371 59.785 2.094 61.906C4.213 61.63 9.041 60.545 13.293 56.293L14.707 57.707C8.486 63.929 1.303 64 1 64Z" fill="#003479"/>
<path id="Fill 237" fill-rule="evenodd" clip-rule="evenodd" d="M46 15C44.346 15 43 16.346 43 18C43 19.654 44.346 21 46 21C47.654 21 49 19.654 49 18C49 16.346 47.654 15 46 15ZM46 23C43.243 23 41 20.757 41 18C41 15.243 43.243 13 46 13C48.757 13 51 15.243 51 18C51 20.757 48.757 23 46 23Z" fill="#A5ADB1"/>
<path id="Fill 238" fill-rule="evenodd" clip-rule="evenodd" d="M37 24C35.346 24 34 25.346 34 27C34 28.654 35.346 30 37 30C38.654 30 40 28.654 40 27C40 25.346 38.654 24 37 24ZM37 32C34.243 32 32 29.757 32 27C32 24.243 34.243 22 37 22C39.757 22 42 24.243 42 27C42 29.757 39.757 32 37 32Z" fill="#A5ADB1"/>
<path id="Fill 239" fill-rule="evenodd" clip-rule="evenodd" d="M28 33C26.346 33 25 34.346 25 36C25 37.654 26.346 39 28 39C29.654 39 31 37.654 31 36C31 34.346 29.654 33 28 33ZM28 41C25.243 41 23 38.757 23 36C23 33.243 25.243 31 28 31C30.757 31 33 33.243 33 36C33 38.757 30.757 41 28 41Z" fill="#A5ADB1"/>
<path id="Fill 240" fill-rule="evenodd" clip-rule="evenodd" d="M37 64H27C26.448 64 26 63.553 26 63V55H28V62H36.352L53.087 24.592L54.913 25.408L37.913 63.408C37.752 63.769 37.395 64 37 64Z" fill="#A5ADB1"/>
<path id="Fill 241" fill-rule="evenodd" clip-rule="evenodd" d="M9 38H1C0.448 38 0 37.553 0 37V27C0 26.605 0.232 26.248 0.592 26.087L38.592 9.08704L39.408 10.913L2 27.648V36H9V38Z" fill="#A5ADB1"/>
<path id="Fill 242" fill-rule="evenodd" clip-rule="evenodd" d="M61 12C56.038 12 52 7.963 52 3H54C54 6.859 57.14 10 61 10V12Z" fill="#A5ADB1"/>
</g>
</svg>
