<svg width="70" height="70" viewBox="0 0 70 70" fill="none" xmlns="http://www.w3.org/2000/svg">
<path fill-rule="evenodd" clip-rule="evenodd" d="M10.5 11.375C9.53487 11.375 8.75 12.1599 8.75 13.125V48.125C8.75 49.0901 9.53487 49.875 10.5 49.875H59.5C60.4651 49.875 61.25 49.0901 61.25 48.125V13.125C61.25 12.1599 60.4651 11.375 59.5 11.375H10.5ZM59.5 51.625H10.5C8.56975 51.625 7 50.0552 7 48.125V13.125C7 11.1947 8.56975 9.625 10.5 9.625H59.5C61.4302 9.625 63 11.1947 63 13.125V48.125C63 50.0552 61.4302 51.625 59.5 51.625Z" fill="#A5ACB0"/>
<path fill-rule="evenodd" clip-rule="evenodd" d="M42.0369 59.751L39.4119 51.001L41.0884 50.4988L43.7134 59.2488L42.0369 59.751Z" fill="#A5ACB0"/>
<path fill-rule="evenodd" clip-rule="evenodd" d="M27.9634 59.751L26.2869 59.2488L28.9119 50.4988L30.5884 51.001L27.9634 59.751Z" fill="#A5ACB0"/>
<path fill-rule="evenodd" clip-rule="evenodd" d="M23.625 60.375H46.375V58.625H23.625V60.375Z" fill="#A5ACB0"/>
<path fill-rule="evenodd" clip-rule="evenodd" d="M34.125 48.125H35.875V46.375H34.125V48.125Z" fill="#A5ACB0"/>
<path fill-rule="evenodd" clip-rule="evenodd" d="M12.25 42.875H57.75V14.875H12.25V42.875ZM58.625 44.625H11.375C10.8911 44.625 10.5 44.2339 10.5 43.75V14C10.5 13.5161 10.8911 13.125 11.375 13.125H58.625C59.1089 13.125 59.5 13.5161 59.5 14V43.75C59.5 44.2339 59.1089 44.625 58.625 44.625Z" fill="#A5ACB0"/>
<path fill-rule="evenodd" clip-rule="evenodd" d="M41.074 24.5L35 21.126L28.926 24.5L35 27.8745L41.074 24.5ZM26.723 23.7228L34.5756 19.3602C34.8381 19.2133 35.1619 19.2133 35.4244 19.3602L43.2737 23.721C43.2889 23.7288 43.3038 23.737 43.3186 23.7458C43.5864 23.9033 43.75 24.1903 43.75 24.5V33.25C43.75 33.5676 43.5776 33.8608 43.2994 34.0148L35.4488 38.3762L35.4436 38.3792C35.3071 38.4597 35.154 38.5 35 38.5C34.8539 38.5 34.7069 38.4633 34.5756 38.3897L26.7006 34.0147C26.4224 33.8608 26.25 33.5676 26.25 33.25V24.5C26.25 24.1903 26.4145 23.9033 26.6814 23.7458C26.6951 23.7377 26.709 23.7301 26.723 23.7228ZM42 32.7355L35.875 36.1384V29.3895L42 25.9875V32.7355ZM28 32.7355L34.125 36.1375V29.3895L28 25.9875V32.7355Z" fill="#003479"/>
</svg>
