<svg width="32" height="32" viewBox="0 0 32 32" fill="none" xmlns="http://www.w3.org/2000/svg">
<g id="Group">
<path id="Vector" d="M30 0H2C0.89543 0 0 0.89543 0 2V30C0 31.1046 0.89543 32 2 32H30C31.1046 32 32 31.1046 32 30V2C32 0.89543 31.1046 0 30 0Z" fill="#003479"/>
<g id="Group_2">
<path id="Vector_2" d="M8.1499 11.6401V8.73007C8.1499 8.09007 8.6699 7.57007 9.3099 7.57007H12.2199V11.6401" fill="white"/>
<path id="Vector_3" d="M8.1499 15.7101H12.2199V23.8601C12.2199 24.1801 11.9599 24.4401 11.6399 24.4401H8.7299C8.4099 24.4401 8.1499 24.1801 8.1499 23.8601" fill="white"/>
<path id="Vector_4" d="M16.2898 7.56006H23.8498C24.1698 7.56006 24.4298 7.82006 24.4298 8.14006V11.6301H16.2798" fill="white"/>
<path id="Vector_5" d="M23.8498 19.7801H16.2898V15.7101H24.4398V19.2001C24.4398 19.5201 24.1798 19.7801 23.8598 19.7801H23.8498Z" fill="white"/>
</g>
</g>
</svg>
