<svg width="17" height="16" viewBox="0 0 17 16" fill="none" xmlns="http://www.w3.org/2000/svg">
<g id="Icon left">
<path id="Shape" fill-rule="evenodd" clip-rule="evenodd" d="M14.6732 0C15.4085 0 16.0065 0.598 16.0065 1.33333V14.6667C16.0065 15.402 15.4085 16 14.6732 16H6.66653C5.9312 16 5.3332 15.402 5.3332 14.6667V11.3333C5.3332 10.9653 5.63187 10.6667 5.99987 10.6667C6.36787 10.6667 6.66653 10.9653 6.66653 11.3333V14.6667H14.6732V1.33333H6.66653V4.66667C6.66653 5.03467 6.36787 5.33333 5.99987 5.33333C5.63187 5.33333 5.3332 5.03467 5.3332 4.66667V1.33333C5.3332 0.598 5.9312 0 6.66653 0H14.6732ZM8.19533 4.862C8.456 4.60133 8.87733 4.60133 9.138 4.862L11.8047 7.52867C11.866 7.59 11.9147 7.66333 11.9487 7.74533C12.016 7.908 12.016 8.092 11.9487 8.25467C11.9147 8.33667 11.866 8.41 11.8047 8.47133L9.138 11.138C9.008 11.268 8.83733 11.3333 8.66667 11.3333C8.496 11.3333 8.32533 11.268 8.19533 11.138C7.93467 10.878 7.93467 10.4553 8.19533 10.1953L9.724 8.66667H0.666667C0.298667 8.66667 0 8.368 0 8C0 7.632 0.298667 7.33333 0.666667 7.33333H9.724L8.19533 5.80467C7.93467 5.54467 7.93467 5.122 8.19533 4.862Z" fill="white"/>
</g>
</svg>
