<svg width="56" height="46" viewBox="0 0 56 46" fill="none" xmlns="http://www.w3.org/2000/svg">
<g id="Ty&#195;&#182;nantajuus">
<path id="Fill 219" fill-rule="evenodd" clip-rule="evenodd" d="M46.375 13.375C43.7255 13.375 42.875 14.3323 42.875 17.3125C42.875 19.6453 44.1017 22.125 46.375 22.125C48.6483 22.125 49.875 19.6453 49.875 17.3125C49.875 14.3323 49.0245 13.375 46.375 13.375ZM46.375 23.875C43.3825 23.875 41.125 21.0531 41.125 17.3125C41.125 14.6648 41.7218 11.625 46.375 11.625C51.0282 11.625 51.625 14.6648 51.625 17.3125C51.625 21.0531 49.3675 23.875 46.375 23.875Z" fill="#A5ACB0"/>
<path id="Fill 220" fill-rule="evenodd" clip-rule="evenodd" d="M39.8256 25.5L38.9243 24.0002L43.2993 21.3752L44.2006 22.875L39.8256 25.5Z" fill="#A5ACB0"/>
<path id="Fill 221" fill-rule="evenodd" clip-rule="evenodd" d="M53.375 30.875H48.125V29.125H53.375C53.6349 29.125 54.25 28.446 54.25 27.375V26.1325L48.566 22.8845L49.434 21.3655L56 25.1175V27.375C56 29.272 54.7977 30.875 53.375 30.875Z" fill="#A5ACB0"/>
<path id="Fill 222" fill-rule="evenodd" clip-rule="evenodd" d="M9.625 13.375C6.9755 13.375 6.125 14.3323 6.125 17.3125C6.125 19.6453 7.35175 22.125 9.625 22.125C11.8983 22.125 13.125 19.6453 13.125 17.3125C13.125 14.3323 12.2745 13.375 9.625 13.375ZM9.625 23.875C6.6325 23.875 4.375 21.0531 4.375 17.3125C4.375 14.6648 4.97175 11.625 9.625 11.625C14.2782 11.625 14.875 14.6648 14.875 17.3125C14.875 21.0531 12.6175 23.875 9.625 23.875Z" fill="#A5ACB0"/>
<path id="Fill 223" fill-rule="evenodd" clip-rule="evenodd" d="M16.1743 25.5L11.7993 22.875L12.7006 21.3752L17.0756 24.0002L16.1743 25.5Z" fill="#A5ACB0"/>
<path id="Fill 224" fill-rule="evenodd" clip-rule="evenodd" d="M7.875 30.875H2.625C1.20225 30.875 0 29.272 0 27.375V25.1175L6.566 21.3655L7.434 22.8845L1.75 26.1325V27.375C1.75 28.446 2.36512 29.125 2.625 29.125H7.875V30.875Z" fill="#A5ACB0"/>
<path id="Fill 225" fill-rule="evenodd" clip-rule="evenodd" d="M9.625 45.75H7.875V37.875C7.875 30.8662 11.7653 29.3875 15.883 27.823C17.4081 27.2437 18.984 26.6444 20.566 25.7405L21.434 27.2595C19.7339 28.2316 18.018 28.8835 16.5051 29.4584C12.362 31.0334 9.625 32.0729 9.625 37.875V45.75Z" fill="#078364"/>
<path id="Fill 226" fill-rule="evenodd" clip-rule="evenodd" d="M48.125 45.75H46.375V37.875C46.375 32.0729 43.638 31.0334 39.4949 29.4584C37.982 28.8835 36.2662 28.2316 34.566 27.2595L35.434 25.7405C37.016 26.6444 38.5919 27.2437 40.117 27.823C44.2348 29.3875 48.125 30.8662 48.125 37.875V45.75Z" fill="#078364"/>
<path id="Fill 227" fill-rule="evenodd" clip-rule="evenodd" d="M28 27.2718L31.3277 28.9352L33.8739 26.389L32.8353 24.8315L28 25.6373L23.1648 24.8315L22.1262 26.389L24.6724 28.9352L28 27.2718ZM31.6724 31.065L28 29.2283L24.3277 31.065L19.8739 26.6112L22.3353 22.9187L28 23.8628L33.6648 22.9187L36.1262 26.6112L31.6724 31.065Z" fill="#078364"/>
<path id="Fill 228" fill-rule="evenodd" clip-rule="evenodd" d="M31.5 23.875H33.25V20.375H31.5V23.875Z" fill="#078364"/>
<path id="Fill 229" fill-rule="evenodd" clip-rule="evenodd" d="M22.75 23.875H24.5V20.375H22.75V23.875Z" fill="#078364"/>
<path id="Fill 230" fill-rule="evenodd" clip-rule="evenodd" d="M27.125 37H28.875V35.25H27.125V37Z" fill="#078364"/>
<path id="Fill 231" fill-rule="evenodd" clip-rule="evenodd" d="M27.125 33.5H28.875V31.75H27.125V33.5Z" fill="#078364"/>
<path id="Fill 232" fill-rule="evenodd" clip-rule="evenodd" d="M28 22.125C27.8845 22.125 25.1466 22.1136 23.2339 21.1581L23.1394 21.103C23.0195 21.0225 20.1784 19.0616 19.2588 12.6243L19.25 12.5V9H21V12.4379C21.7534 17.6152 23.8009 19.4029 24.0791 19.6234C25.6209 20.3619 27.9773 20.375 28.0009 20.375C28.0227 20.375 30.3783 20.3619 31.9191 19.6243C32.193 19.4055 34.2475 17.6074 35 12.4379V9H36.75L36.7412 12.6243C35.8216 19.0616 32.9805 21.0225 32.8606 21.103L32.7661 21.1581C30.8534 22.1136 28.1155 22.125 28 22.125Z" fill="#078364"/>
<path id="Fill 233" fill-rule="evenodd" clip-rule="evenodd" d="M36.75 9H35C35 4.1595 32.8414 2 28 2C23.1586 2 21 4.1595 21 9H19.25C19.25 3.1935 22.1935 0.25 28 0.25C33.8065 0.25 36.75 3.1935 36.75 9Z" fill="#078364"/>
<path id="Fill 234" fill-rule="evenodd" clip-rule="evenodd" d="M32.4144 11.709L23.6644 8.20902L20.5161 9.78314L19.7339 8.21689L23.5856 6.29102L32.3356 9.79102L35.4839 8.21689L36.2661 9.78314L32.4144 11.709Z" fill="#078364"/>
<path id="Fill 235" fill-rule="evenodd" clip-rule="evenodd" d="M14.875 45.75H16.625V38.75H14.875V45.75Z" fill="#078364"/>
<path id="Fill 236" fill-rule="evenodd" clip-rule="evenodd" d="M39.375 45.75H41.125V38.75H39.375V45.75Z" fill="#078364"/>
</g>
</svg>
