<svg width="56" height="52" viewBox="0 0 56 52" fill="none" xmlns="http://www.w3.org/2000/svg">
<g id="Group 2">
<path id="Fill 645" fill-rule="evenodd" clip-rule="evenodd" d="M3.5 2.375C2.53487 2.375 1.75 3.15987 1.75 4.125V39.125C1.75 40.0901 2.53487 40.875 3.5 40.875H52.5C53.4651 40.875 54.25 40.0901 54.25 39.125V4.125C54.25 3.15987 53.4651 2.375 52.5 2.375H3.5ZM52.5 42.625H3.5C1.56975 42.625 0 41.0552 0 39.125V4.125C0 2.19475 1.56975 0.625 3.5 0.625H52.5C54.4302 0.625 56 2.19475 56 4.125V39.125C56 41.0552 54.4302 42.625 52.5 42.625Z" fill="#A5ACB0"/>
<path id="Fill 646" fill-rule="evenodd" clip-rule="evenodd" d="M35.0369 50.751L32.4119 42.001L34.0884 41.4988L36.7134 50.2488L35.0369 50.751Z" fill="#A5ACB0"/>
<path id="Fill 647" fill-rule="evenodd" clip-rule="evenodd" d="M20.9634 50.751L19.2869 50.2488L21.9119 41.4988L23.5884 42.001L20.9634 50.751Z" fill="#A5ACB0"/>
<path id="Fill 648" fill-rule="evenodd" clip-rule="evenodd" d="M16.625 51.375H39.375V49.625H16.625V51.375Z" fill="#A5ACB0"/>
<path id="Fill 649" fill-rule="evenodd" clip-rule="evenodd" d="M27.125 39.125H28.875V37.375H27.125V39.125Z" fill="#A5ACB0"/>
<path id="Fill 650" fill-rule="evenodd" clip-rule="evenodd" d="M5.25 33.875H50.75V5.875H5.25V33.875ZM51.625 35.625H4.375C3.89113 35.625 3.5 35.2339 3.5 34.75V5C3.5 4.51613 3.89113 4.125 4.375 4.125H51.625C52.1089 4.125 52.5 4.51613 52.5 5V34.75C52.5 35.2339 52.1089 35.625 51.625 35.625Z" fill="#A5ACB0"/>
<path id="Combined Shape" fill-rule="evenodd" clip-rule="evenodd" d="M34.074 15.5L28 12.126L21.926 15.5L28 18.8745L34.074 15.5ZM19.723 14.7228L27.5756 10.3602C27.8381 10.2133 28.1619 10.2133 28.4244 10.3602L36.2737 14.721C36.2889 14.7288 36.3038 14.737 36.3186 14.7458C36.5864 14.9033 36.75 15.1903 36.75 15.5V24.25C36.75 24.5676 36.5776 24.8608 36.2994 25.0148L28.4488 29.3762L28.4436 29.3792C28.3071 29.4597 28.154 29.5 28 29.5C27.8539 29.5 27.7069 29.4633 27.5756 29.3897L19.7006 25.0147C19.4224 24.8608 19.25 24.5676 19.25 24.25V15.5C19.25 15.1903 19.4145 14.9033 19.6814 14.7458C19.6951 14.7377 19.709 14.7301 19.723 14.7228ZM35 23.7355L28.875 27.1384V20.3895L35 16.9875V23.7355ZM21 23.7355L27.125 27.1375V20.3895L21 16.9875V23.7355Z" fill="#078364"/>
</g>
</svg>
