<?xml version="1.0" encoding="UTF-8"?><svg id="a" xmlns="http://www.w3.org/2000/svg" width="990mm" height="282mm" viewBox="0 0 2806.3 799.37"><rect x="522.82" y="176.44" width="46.28" height="46.28" fill="#335d94" stroke-width="0"/><rect x="476.53" y="176.44" width="46.28" height="46.28" fill="#6685af" stroke-width="0"/><rect x="522.82" y="222.73" width="46.28" height="46.28" fill="#4c71a1" stroke-width="0"/><rect x="569.1" y="222.73" width="46.28" height="46.28" fill="#8099bc" stroke-width="0"/><rect x="569.1" y="269.01" width="46.28" height="46.28" fill="#335d94" stroke-width="0"/><path d="m569.1,269.01h-46.28v-46.28h-46.28v-46.28H215.72c-8.29,0-15.08,6.76-15.08,15.02v383.07c0,8.26,6.79,15.02,15.08,15.02h384.59c8.29,0,15.08-6.76,15.08-15.02v-259.24h-46.28v-46.28Z" fill="#003479" stroke-width="0"/><path d="m306.21,326.66v-37.56c0-8.26,6.79-15.02,15.08-15.02h37.7v52.58h-52.78Z" fill="#fff" stroke-width="0"/><path d="m306.21,379.24h52.78v105.16c0,4.13-3.39,7.51-7.54,7.51h-37.7c-4.15,0-7.54-3.38-7.54-7.51v-105.16Z" fill="#fff" stroke-width="0"/><path d="m411.78,274.09h98.03c4.15,0,7.54,3.38,7.54,7.51v45.07h-105.57v-52.58Z" fill="#fff" stroke-width="0"/><path d="m509.81,431.82h-98.03v-52.58h105.57v45.07c0,4.15-3.38,7.51-7.54,7.51" fill="#fff" stroke-width="0"/><path d="m789.23,405.46h-20.6v85.62h-27.66v-203.02h55.32c41.49,0,67.38,20.6,67.38,57.67,0,30.89-17.95,49.14-44.43,56.2l60.32,85.03-29.13,6.18-61.2-87.68Zm5.88-92.98h-26.48v69.73h23.54c26.78,0,43.84-12.06,43.84-35.01s-13.83-34.72-40.9-34.72Z" fill="#003479" stroke-width="0"/><path d="m956.65,494.03c-36.49,0-65.03-22.07-65.03-73.56,0-45.02,26.48-72.68,61.79-72.68,40.9,0,59.73,31.48,59.73,70.32v5.59h-95.33c1.18,32.66,16.48,47.96,40.9,47.96,20.3,0,35.01-7.94,50.31-20.01l3.83,23.54c-15.01,11.77-32.96,18.83-56.2,18.83Zm-37.66-90.04h67.67c-3.24-22.66-13.24-35.6-33.54-35.6-16.18,0-30.01,11.77-34.13,35.6Z" fill="#003479" stroke-width="0"/><path d="m1089.05,494.03c-18.54,0-39.13-6.47-51.2-13.24l3.83-24.72c13.24,9.12,30.31,16.18,49.43,16.18,17.95,0,28.54-6.77,28.54-18.54,0-12.95-7.94-17.65-33.25-23.83-32.95-8.24-46.2-18.24-46.2-43.25,0-22.36,18.83-38.84,49.43-38.84,17.36,0,32.96,3.53,46.2,9.42l-4.12,24.72c-12.36-7.06-27.95-12.06-42.66-12.06-15.89,0-24.13,6.18-24.13,16.18,0,9.42,7.06,14.71,29.13,20.3,34.72,8.83,50.31,18.83,50.31,45.61s-19.12,42.08-55.32,42.08Z" fill="#003479" stroke-width="0"/><path d="m1224.1,493.44c-24.72,0-40.9-8.83-40.9-37.07v-83.56h-21.18v-22.07h21.18v-46.78l25.6-3.82v50.61h30.31l3.53,22.07h-33.84v78.85c0,11.48,4.71,18.54,19.42,18.54,4.71,0,8.83-.29,12.06-.88l3.53,22.36c-4.41.88-10.59,1.77-19.71,1.77Z" fill="#003479" stroke-width="0"/><path d="m1301.78,408.11v82.97h-26.19v-140.35h20.89l4.41,28.54c10-15.89,26.19-30.31,49.14-31.48l4.12,25.01c-23.24,1.18-42.96,16.77-52.37,35.31Z" fill="#003479" stroke-width="0"/><path d="m1396.22,322.49c-9.12,0-16.77-7.36-16.77-16.48s7.65-16.77,16.77-16.77,16.48,7.65,16.48,16.77-7.36,16.48-16.48,16.48Zm-13.24,168.6v-140.35h26.19v140.35h-26.19Z" fill="#003479" stroke-width="0"/><path d="m1509.8,494.03c-37.66,0-65.32-26.19-65.32-72.97s29.42-73.26,67.08-73.26c20.3,0,35.31,6.18,44.72,12.95l-3.83,25.6c-12.06-9.71-25.01-15.59-41.19-15.59-24.13,0-40.31,17.65-40.31,50.02,0,34.13,17.65,50.31,41.19,50.31,14.12,0,27.95-3.83,41.78-15.59l3.82,24.13c-12.95,9.71-27.95,14.42-47.96,14.42Z" fill="#003479" stroke-width="0"/><path d="m1637.5,493.44c-24.72,0-40.9-8.83-40.9-37.07v-83.56h-21.18v-22.07h21.18v-46.78l25.6-3.82v50.61h30.31l3.53,22.07h-33.84v78.85c0,11.48,4.71,18.54,19.42,18.54,4.71,0,8.83-.29,12.06-.88l3.53,22.36c-4.41.88-10.59,1.77-19.71,1.77Z" fill="#003479" stroke-width="0"/><path d="m1744.89,494.03c-36.49,0-65.03-22.07-65.03-73.56,0-45.02,26.48-72.68,61.79-72.68,40.9,0,59.73,31.48,59.73,70.32v5.59h-95.33c1.18,32.66,16.48,47.96,40.9,47.96,20.3,0,35.01-7.94,50.31-20.01l3.82,23.54c-15.01,11.77-32.95,18.83-56.2,18.83Zm-37.66-90.04h67.67c-3.24-22.66-13.24-35.6-33.54-35.6-16.18,0-30.01,11.77-34.13,35.6Z" fill="#003479" stroke-width="0"/><path d="m1890.24,348.97c13.83,0,26.48,2.65,35.31,6.18v-72.38l26.19-4.12v212.44h-20.89l-3.24-20.3c-10.59,12.65-25.01,23.24-45.61,23.24-30.31,0-55.32-22.07-55.32-69.15,0-51.2,29.42-75.91,63.55-75.91Zm-4.41,121.81c16.18,0,28.54-9.71,39.72-24.72v-67.09c-10.89-5.59-19.42-7.94-34.43-7.94-22.07,0-37.96,17.95-37.96,52.67,0,30.89,13.83,47.08,32.66,47.08Z" fill="#003479" stroke-width="0"/><path d="m2119.15,491.09h-57.67v-203.02h58.85c70.62,0,106.81,41.78,106.81,101.22s-38.25,101.81-107.98,101.81Zm2.06-178.01h-32.07v153h31.19c48.84,0,78.27-24.72,78.27-76.5s-30.89-76.5-77.38-76.5Z" fill="#003479" stroke-width="0"/><path d="m2341,491.09l-2.94-18.83c-11.18,11.48-26.48,21.77-49.43,21.77-25.3,0-41.19-15.3-41.19-39.13,0-35.01,30.01-48.84,88.56-55.02v-5.88c0-17.65-10.59-23.83-26.78-23.83-17.06,0-33.25,5.3-48.55,12.06l-3.53-22.66c16.77-6.77,32.66-11.77,54.43-11.77,34.13,0,50.61,13.83,50.61,45.02v98.27h-21.19Zm-5-71.21c-51.79,5-62.67,19.13-62.67,33.54,0,11.48,7.65,18.83,20.89,18.83,15.3,0,30.01-7.65,41.78-19.71v-32.66Z" fill="#003479" stroke-width="0"/><path d="m2450.45,493.44c-24.72,0-40.9-8.83-40.9-37.07v-83.56h-21.18v-22.07h21.18v-46.78l25.6-3.82v50.61h30.31l3.53,22.07h-33.84v78.85c0,11.48,4.71,18.54,19.42,18.54,4.71,0,8.83-.29,12.06-.88l3.53,22.36c-4.41.88-10.59,1.77-19.71,1.77Z" fill="#003479" stroke-width="0"/><path d="m2586.98,491.09l-2.94-18.83c-11.18,11.48-26.48,21.77-49.43,21.77-25.3,0-41.19-15.3-41.19-39.13,0-35.01,30.01-48.84,88.56-55.02v-5.88c0-17.65-10.59-23.83-26.78-23.83-17.06,0-33.25,5.3-48.55,12.06l-3.53-22.66c16.77-6.77,32.66-11.77,54.43-11.77,34.13,0,50.61,13.83,50.61,45.02v98.27h-21.19Zm-5-71.21c-51.79,5-62.67,19.13-62.67,33.54,0,11.48,7.65,18.83,20.89,18.83,15.3,0,30.01-7.65,41.78-19.71v-32.66Z" fill="#003479" stroke-width="0"/></svg>