<?xml version="1.0" encoding="UTF-8"?><svg id="a" xmlns="http://www.w3.org/2000/svg" width="950mm" height="282mm" viewBox="0 0 2692.91 799.37"><rect x="522.82" y="176.44" width="46.28" height="46.28" fill="#335d94" stroke-width="0"/><rect x="476.53" y="176.44" width="46.28" height="46.28" fill="#6685af" stroke-width="0"/><rect x="522.82" y="222.73" width="46.28" height="46.28" fill="#4c71a1" stroke-width="0"/><rect x="569.1" y="222.73" width="46.28" height="46.28" fill="#8099bc" stroke-width="0"/><rect x="569.1" y="269.01" width="46.28" height="46.28" fill="#335d94" stroke-width="0"/><path d="m569.1,269.01h-46.28v-46.28h-46.28v-46.28H215.72c-8.29,0-15.08,6.76-15.08,15.02v383.07c0,8.26,6.79,15.02,15.08,15.02h384.59c8.29,0,15.08-6.76,15.08-15.02v-259.24h-46.28v-46.28Z" fill="#003479" stroke-width="0"/><path d="m306.21,326.66v-37.56c0-8.26,6.79-15.02,15.08-15.02h37.7v52.58h-52.78Z" fill="#fff" stroke-width="0"/><path d="m306.21,379.24h52.78v105.16c0,4.13-3.39,7.51-7.54,7.51h-37.7c-4.15,0-7.54-3.38-7.54-7.51v-105.16Z" fill="#fff" stroke-width="0"/><path d="m411.78,274.09h98.03c4.15,0,7.54,3.38,7.54,7.51v45.07h-105.57v-52.58Z" fill="#fff" stroke-width="0"/><path d="m509.81,431.82h-98.03v-52.58h105.57v45.07c0,4.15-3.38,7.51-7.54,7.51" fill="#fff" stroke-width="0"/><path d="m787.93,488.93c-22.07,0-41.78-5.3-56.79-13.24l4.12-28.25c13.83,9.12,32.95,17.36,53.26,17.36s36.19-11.18,36.19-30.89c0-18.54-8.24-26.19-38.84-40.02-38.25-17.36-52.67-30.01-52.67-59.14,0-32.66,25.01-53.55,61.79-53.55,19.71,0,34.42,4.71,46.19,11.48l-4.41,27.66c-11.18-8.53-26.48-15.01-42.66-15.01-23.25,0-33.54,12.36-33.54,27.36s7.65,22.95,38.54,37.07c39.43,17.95,52.96,31.48,52.96,62.08,0,35.01-26.19,57.08-64.14,57.08Z" fill="#003479" stroke-width="0"/><path d="m912.98,413.02v73.56h-26.19v-208.32l26.19-4.12v130.94l54.43-58.85h31.48l-59.14,62.08,64.14,75.91-28.54,4.41-62.38-75.62Z" fill="#003479" stroke-width="0"/><path d="m1024.2,538.95l-3.83-23.83c4.41,1.18,9.71,2.06,13.83,2.06,11.77,0,19.71-5.59,25.3-20.6l3.53-9.42-51.2-138.88,26.48-4.12,37.66,111.22,36.78-109.16h27.36l-57.38,155.06c-11.48,31.19-26.78,38.84-47.37,38.84-5.59,0-8.53-.59-11.18-1.18Z" fill="#003479" stroke-width="0"/><path d="m1219.28,344.46c13.83,0,26.48,2.65,35.31,6.18v-72.38l26.19-4.12v212.44h-20.89l-3.24-20.3c-10.59,12.65-25.01,23.24-45.61,23.24-30.31,0-55.32-22.07-55.32-69.15,0-51.2,29.42-75.91,63.55-75.91Zm-4.41,121.81c16.18,0,28.54-9.71,39.72-24.72v-67.09c-10.89-5.59-19.42-7.94-34.42-7.94-22.07,0-37.96,17.95-37.96,52.67,0,30.89,13.83,47.08,32.66,47.08Z" fill="#003479" stroke-width="0"/><path d="m1377.57,344.46c13.83,0,26.48,2.65,35.31,6.18v-72.38l26.19-4.12v212.44h-20.89l-3.24-20.3c-10.59,12.65-25.01,23.24-45.61,23.24-30.31,0-55.32-22.07-55.32-69.15,0-51.2,29.42-75.91,63.55-75.91Zm-4.41,121.81c16.18,0,28.54-9.71,39.72-24.72v-67.09c-10.89-5.59-19.42-7.94-34.43-7.94-22.07,0-37.96,17.95-37.96,52.67,0,30.89,13.83,47.08,32.66,47.08Z" fill="#003479" stroke-width="0"/><path d="m1565.29,486.58l-2.94-18.83c-11.18,11.48-26.48,21.77-49.43,21.77-25.3,0-41.19-15.3-41.19-39.13,0-35.01,30.01-48.84,88.56-55.02v-5.88c0-17.65-10.59-23.83-26.78-23.83-17.07,0-33.25,5.3-48.55,12.06l-3.53-22.66c16.77-6.77,32.66-11.77,54.43-11.77,34.13,0,50.61,13.83,50.61,45.02v98.27h-21.19Zm-5-71.21c-51.79,5-62.67,19.13-62.67,33.54,0,11.48,7.65,18.83,20.89,18.83,15.3,0,30.01-7.65,41.78-19.71v-32.66Z" fill="#003479" stroke-width="0"/><path d="m1682.69,344.46c13.83,0,26.48,2.65,35.31,6.18v-72.38l26.19-4.12v212.44h-20.89l-3.24-20.3c-10.59,12.65-25.01,23.24-45.61,23.24-30.31,0-55.32-22.07-55.32-69.15,0-51.2,29.42-75.91,63.55-75.91Zm-4.41,121.81c16.18,0,28.54-9.71,39.72-24.72v-67.09c-10.89-5.59-19.42-7.94-34.43-7.94-22.07,0-37.96,17.95-37.96,52.67,0,30.89,13.83,47.08,32.66,47.08Z" fill="#003479" stroke-width="0"/><path d="m1842.46,489.52c-36.49,0-65.03-22.07-65.03-73.56,0-45.02,26.48-72.68,61.79-72.68,40.9,0,59.73,31.48,59.73,70.32v5.59h-95.33c1.18,32.66,16.48,47.96,40.9,47.96,20.3,0,35.01-7.94,50.31-20.01l3.83,23.54c-15.01,11.77-32.95,18.83-56.2,18.83Zm-37.66-90.04h67.67c-3.24-22.66-13.24-35.6-33.54-35.6-16.18,0-30.01,11.77-34.13,35.6Z" fill="#003479" stroke-width="0"/><path d="m2052.54,344.46c13.83,0,26.48,2.65,35.31,6.18v-72.38l26.19-4.12v212.44h-20.89l-3.24-20.3c-10.59,12.65-25.01,23.24-45.61,23.24-30.31,0-55.32-22.07-55.32-69.15,0-51.2,29.42-75.91,63.55-75.91Zm-4.41,121.81c16.18,0,28.54-9.71,39.72-24.72v-67.09c-10.89-5.59-19.42-7.94-34.42-7.94-22.07,0-37.96,17.95-37.96,52.67,0,30.89,13.83,47.08,32.66,47.08Z" fill="#003479" stroke-width="0"/><path d="m2240.26,486.58l-2.94-18.83c-11.18,11.48-26.48,21.77-49.43,21.77-25.3,0-41.19-15.3-41.19-39.13,0-35.01,30.01-48.84,88.57-55.02v-5.88c0-17.65-10.59-23.83-26.78-23.83-17.07,0-33.25,5.3-48.55,12.06l-3.53-22.66c16.77-6.77,32.66-11.77,54.43-11.77,34.13,0,50.61,13.83,50.61,45.02v98.27h-21.18Zm-5-71.21c-51.79,5-62.67,19.13-62.67,33.54,0,11.48,7.65,18.83,20.89,18.83,15.3,0,30.01-7.65,41.78-19.71v-32.66Z" fill="#003479" stroke-width="0"/><path d="m2349.72,488.93c-24.72,0-40.9-8.83-40.9-37.07v-83.56h-21.18v-22.07h21.18v-46.78l25.6-3.82v50.61h30.31l3.53,22.07h-33.84v78.85c0,11.48,4.71,18.54,19.42,18.54,4.71,0,8.83-.29,12.06-.88l3.53,22.36c-4.41.88-10.59,1.77-19.71,1.77Z" fill="#003479" stroke-width="0"/><path d="m2486.24,486.58l-2.94-18.83c-11.18,11.48-26.48,21.77-49.43,21.77-25.3,0-41.19-15.3-41.19-39.13,0-35.01,30.01-48.84,88.57-55.02v-5.88c0-17.65-10.59-23.83-26.78-23.83-17.07,0-33.25,5.3-48.55,12.06l-3.53-22.66c16.77-6.77,32.66-11.77,54.43-11.77,34.13,0,50.61,13.83,50.61,45.02v98.27h-21.18Zm-5-71.21c-51.79,5-62.67,19.13-62.67,33.54,0,11.48,7.65,18.83,20.89,18.83,15.3,0,30.01-7.65,41.78-19.71v-32.66Z" fill="#003479" stroke-width="0"/></svg>