<?xml version="1.0" encoding="UTF-8"?><svg id="a" xmlns="http://www.w3.org/2000/svg" width="1020mm" height="282mm" viewBox="0 0 2891.34 799.37"><rect x="522.82" y="176.44" width="46.28" height="46.28" fill="#335d94" stroke-width="0"/><rect x="476.53" y="176.44" width="46.28" height="46.28" fill="#6685af" stroke-width="0"/><rect x="522.82" y="222.73" width="46.28" height="46.28" fill="#4c71a1" stroke-width="0"/><rect x="569.1" y="222.73" width="46.28" height="46.28" fill="#8099bc" stroke-width="0"/><rect x="569.1" y="269.01" width="46.28" height="46.28" fill="#335d94" stroke-width="0"/><path d="m569.1,269.01h-46.28v-46.28h-46.28v-46.28H215.72c-8.29,0-15.08,6.76-15.08,15.02v383.07c0,8.26,6.79,15.02,15.08,15.02h384.59c8.29,0,15.08-6.76,15.08-15.02v-259.24h-46.28v-46.28Z" fill="#003479" stroke-width="0"/><path d="m306.21,326.66v-37.56c0-8.26,6.79-15.02,15.08-15.02h37.7v52.58h-52.78Z" fill="#fff" stroke-width="0"/><path d="m306.21,379.24h52.78v105.16c0,4.13-3.39,7.51-7.54,7.51h-37.7c-4.15,0-7.54-3.38-7.54-7.51v-105.16Z" fill="#fff" stroke-width="0"/><path d="m411.78,274.09h98.03c4.15,0,7.54,3.38,7.54,7.51v45.07h-105.57v-52.58Z" fill="#fff" stroke-width="0"/><path d="m509.81,431.82h-98.03v-52.58h105.57v45.07c0,4.15-3.38,7.51-7.54,7.51" fill="#fff" stroke-width="0"/><path d="m787.93,488.93c-22.07,0-41.78-5.3-56.79-13.24l4.12-28.25c13.83,9.12,32.95,17.36,53.26,17.36s36.19-11.18,36.19-30.89c0-18.54-8.24-26.19-38.84-40.02-38.25-17.36-52.67-30.01-52.67-59.14,0-32.66,25.01-53.55,61.79-53.55,19.71,0,34.43,4.71,46.19,11.48l-4.41,27.66c-11.18-8.53-26.48-15.01-42.66-15.01-23.24,0-33.54,12.36-33.54,27.36s7.65,22.95,38.54,37.07c39.43,17.95,52.96,31.48,52.96,62.08,0,35.01-26.19,57.08-64.14,57.08Z" fill="#003479" stroke-width="0"/><path d="m912.39,346.23v95.63c0,14.42,6.18,24.13,21.48,24.13,13.83,0,27.95-9.12,40.6-22.66v-97.1h26.19v140.35h-20.89l-3.24-20.3c-13.24,12.36-30.01,23.24-49.73,23.24-26.78,0-40.6-15.89-40.6-41.19v-102.1h26.19Z" fill="#003479" stroke-width="0"/><path d="m1098.34,489.52c-37.37,0-64.44-26.78-64.44-72.97s27.07-73.26,64.44-73.26,65.32,27.07,65.32,73.26-27.66,72.97-65.32,72.97Zm0-124.46c-25.3,0-37.96,22.07-37.96,51.49s13.24,51.2,37.96,51.2,38.84-21.77,38.84-51.2-13.53-51.49-38.84-51.49Z" fill="#003479" stroke-width="0"/><path d="m1187.79,540.13c-4.41,0-10-.29-12.06-.88l-3.83-23.24c3.24.88,8.24,1.18,12.36,1.18,9.12,0,14.71-4.71,14.71-15.3v-155.65h26.19v158c0,25.3-15.01,35.9-37.37,35.9Zm24.42-222.15c-9.12,0-16.77-7.36-16.77-16.48s7.65-16.77,16.77-16.77,16.48,7.65,16.48,16.77-7.36,16.48-16.48,16.48Z" fill="#003479" stroke-width="0"/><path d="m1353.44,486.58l-2.94-18.83c-11.18,11.48-26.48,21.77-49.43,21.77-25.3,0-41.19-15.3-41.19-39.13,0-35.01,30.01-48.84,88.56-55.02v-5.88c0-17.65-10.59-23.83-26.78-23.83-17.07,0-33.25,5.3-48.55,12.06l-3.53-22.66c16.77-6.77,32.66-11.77,54.43-11.77,34.13,0,50.61,13.83,50.61,45.02v98.27h-21.19Zm-5-71.21c-51.79,5-62.67,19.13-62.67,33.54,0,11.48,7.65,18.83,20.89,18.83,15.3,0,30.01-7.65,41.78-19.71v-32.66Z" fill="#003479" stroke-width="0"/><path d="m1462.9,488.93c-24.72,0-40.9-8.83-40.9-37.07v-83.56h-21.19v-22.07h21.19v-46.78l25.6-3.82v50.61h30.31l3.53,22.07h-33.84v78.85c0,11.48,4.71,18.54,19.42,18.54,4.71,0,8.83-.29,12.06-.88l3.53,22.36c-4.41.88-10.59,1.77-19.71,1.77Z" fill="#003479" stroke-width="0"/><path d="m1562.05,488.93c-24.72,0-40.9-8.83-40.9-37.07v-83.56h-21.19v-22.07h21.19v-46.78l25.6-3.82v50.61h30.31l3.53,22.07h-33.84v78.85c0,11.48,4.71,18.54,19.42,18.54,4.71,0,8.83-.29,12.06-.88l3.53,22.36c-4.41.88-10.59,1.77-19.71,1.77Z" fill="#003479" stroke-width="0"/><path d="m1639.14,346.23v95.63c0,14.42,6.18,24.13,21.48,24.13,13.83,0,27.95-9.12,40.6-22.66v-97.1h26.19v140.35h-20.89l-3.24-20.3c-13.24,12.36-30.01,23.24-49.73,23.24-26.78,0-40.6-15.89-40.6-41.19v-102.1h26.19Z" fill="#003479" stroke-width="0"/><path d="m1888.94,344.46c13.83,0,26.48,2.65,35.31,6.18v-72.38l26.19-4.12v212.44h-20.89l-3.24-20.3c-10.59,12.65-25.01,23.24-45.61,23.24-30.31,0-55.32-22.07-55.32-69.15,0-51.2,29.42-75.91,63.55-75.91Zm-4.41,121.81c16.18,0,28.54-9.71,39.72-24.72v-67.09c-10.89-5.59-19.42-7.94-34.43-7.94-22.07,0-37.96,17.95-37.96,52.67,0,30.89,13.83,47.08,32.66,47.08Z" fill="#003479" stroke-width="0"/><path d="m2076.66,486.58l-2.94-18.83c-11.18,11.48-26.48,21.77-49.43,21.77-25.3,0-41.19-15.3-41.19-39.13,0-35.01,30.01-48.84,88.56-55.02v-5.88c0-17.65-10.59-23.83-26.78-23.83-17.07,0-33.25,5.3-48.55,12.06l-3.53-22.66c16.77-6.77,32.66-11.77,54.43-11.77,34.13,0,50.61,13.83,50.61,45.02v98.27h-21.19Zm-5-71.21c-51.79,5-62.67,19.13-62.67,33.54,0,11.48,7.65,18.83,20.89,18.83,15.3,0,30.01-7.65,41.78-19.71v-32.66Z" fill="#003479" stroke-width="0"/><path d="m2186.12,488.93c-24.72,0-40.9-8.83-40.9-37.07v-83.56h-21.19v-22.07h21.19v-46.78l25.6-3.82v50.61h30.31l3.53,22.07h-33.84v78.85c0,11.48,4.71,18.54,19.42,18.54,4.71,0,8.83-.29,12.06-.88l3.53,22.36c-4.41.88-10.59,1.77-19.71,1.77Z" fill="#003479" stroke-width="0"/><path d="m2322.64,486.58l-2.94-18.83c-11.18,11.48-26.48,21.77-49.43,21.77-25.3,0-41.19-15.3-41.19-39.13,0-35.01,30.01-48.84,88.56-55.02v-5.88c0-17.65-10.59-23.83-26.78-23.83-17.07,0-33.25,5.3-48.55,12.06l-3.53-22.66c16.77-6.77,32.66-11.77,54.43-11.77,34.13,0,50.61,13.83,50.61,45.02v98.27h-21.19Zm-5-71.21c-51.79,5-62.67,19.13-62.67,33.54,0,11.48,7.65,18.83,20.89,18.83,15.3,0,30.01-7.65,41.78-19.71v-32.66Z" fill="#003479" stroke-width="0"/><path d="m2394.35,308.73v-121.22h32.44c18.53,0,32.99,5,43.37,15.01s15.57,25.02,15.57,45.04-5.13,35.4-15.38,45.78c-10.26,10.26-24.4,15.38-42.44,15.38h-33.55Zm21.5-17.42h9.45c12.23,0,21.69-3.52,28.36-10.56,6.67-7.17,10.01-18.23,10.01-33.18s-3.34-25.64-10.01-32.44c-6.67-6.8-16.13-10.19-28.36-10.19h-9.45v86.37Zm94.34,17.42v-121.22h73.03v18.16h-51.53v30.95h43.56v18.16h-43.56v35.77h53.38v18.16h-74.88Zm121.42,0l-37.81-121.22h22.8l17.05,60.98c1.98,6.8,3.77,13.34,5.38,19.65,1.61,6.3,3.4,12.91,5.38,19.83h.74c2.1-6.92,3.89-13.53,5.38-19.83,1.61-6.3,3.34-12.85,5.19-19.65l16.87-60.98h22.06l-37.63,121.22h-25.39Z" fill="#6b6b6b" stroke-width="0"/></svg>