<svg width="70" height="70" viewBox="0 0 70 70" fill="none" xmlns="http://www.w3.org/2000/svg">
<path fill-rule="evenodd" clip-rule="evenodd" d="M53.375 25.375C50.7255 25.375 49.875 26.3323 49.875 29.3125C49.875 31.6453 51.1017 34.125 53.375 34.125C55.6483 34.125 56.875 31.6453 56.875 29.3125C56.875 26.3323 56.0245 25.375 53.375 25.375ZM53.375 35.875C50.3825 35.875 48.125 33.0531 48.125 29.3125C48.125 26.6648 48.7218 23.625 53.375 23.625C58.0282 23.625 58.625 26.6648 58.625 29.3125C58.625 33.0531 56.3675 35.875 53.375 35.875Z" fill="#A5ACB0"/>
<path fill-rule="evenodd" clip-rule="evenodd" d="M46.8256 37.5L45.9243 36.0002L50.2993 33.3752L51.2006 34.875L46.8256 37.5Z" fill="#A5ACB0"/>
<path fill-rule="evenodd" clip-rule="evenodd" d="M60.375 42.875H55.125V41.125H60.375C60.6349 41.125 61.25 40.446 61.25 39.375V38.1325L55.566 34.8845L56.434 33.3655L63 37.1175V39.375C63 41.272 61.7977 42.875 60.375 42.875Z" fill="#A5ACB0"/>
<path fill-rule="evenodd" clip-rule="evenodd" d="M16.625 25.375C13.9755 25.375 13.125 26.3323 13.125 29.3125C13.125 31.6453 14.3517 34.125 16.625 34.125C18.8983 34.125 20.125 31.6453 20.125 29.3125C20.125 26.3323 19.2745 25.375 16.625 25.375ZM16.625 35.875C13.6325 35.875 11.375 33.0531 11.375 29.3125C11.375 26.6648 11.9718 23.625 16.625 23.625C21.2782 23.625 21.875 26.6648 21.875 29.3125C21.875 33.0531 19.6175 35.875 16.625 35.875Z" fill="#A5ACB0"/>
<path fill-rule="evenodd" clip-rule="evenodd" d="M23.1743 37.5L18.7993 34.875L19.7006 33.3752L24.0756 36.0002L23.1743 37.5Z" fill="#A5ACB0"/>
<path fill-rule="evenodd" clip-rule="evenodd" d="M14.875 42.875H9.625C8.20225 42.875 7 41.272 7 39.375V37.1175L13.566 33.3655L14.434 34.8845L8.75 38.1325V39.375C8.75 40.446 9.36512 41.125 9.625 41.125H14.875V42.875Z" fill="#A5ACB0"/>
<path fill-rule="evenodd" clip-rule="evenodd" d="M16.625 57.75H14.875V49.875C14.875 42.8662 18.7653 41.3875 22.883 39.823C24.4081 39.2437 25.984 38.6444 27.566 37.7405L28.434 39.2595C26.7339 40.2316 25.018 40.8835 23.5051 41.4584C19.362 43.0334 16.625 44.0729 16.625 49.875V57.75Z" fill="#003479"/>
<path fill-rule="evenodd" clip-rule="evenodd" d="M55.125 57.75H53.375V49.875C53.375 44.0729 50.638 43.0334 46.4949 41.4584C44.982 40.8835 43.2662 40.2316 41.566 39.2595L42.434 37.7405C44.016 38.6444 45.5919 39.2437 47.117 39.823C51.2348 41.3875 55.125 42.8662 55.125 49.875V57.75Z" fill="#003479"/>
<path fill-rule="evenodd" clip-rule="evenodd" d="M35 39.2718L38.3277 40.9352L40.8739 38.389L39.8353 36.8315L35 37.6373L30.1648 36.8315L29.1262 38.389L31.6724 40.9352L35 39.2718ZM38.6724 43.065L35 41.2283L31.3277 43.065L26.8739 38.6112L29.3353 34.9187L35 35.8628L40.6648 34.9187L43.1262 38.6112L38.6724 43.065Z" fill="#003479"/>
<path fill-rule="evenodd" clip-rule="evenodd" d="M38.5 35.875H40.25V32.375H38.5V35.875Z" fill="#003479"/>
<path fill-rule="evenodd" clip-rule="evenodd" d="M29.75 35.875H31.5V32.375H29.75V35.875Z" fill="#003479"/>
<path fill-rule="evenodd" clip-rule="evenodd" d="M34.125 49H35.875V47.25H34.125V49Z" fill="#003479"/>
<path fill-rule="evenodd" clip-rule="evenodd" d="M34.125 45.5H35.875V43.75H34.125V45.5Z" fill="#003479"/>
<path fill-rule="evenodd" clip-rule="evenodd" d="M35 34.125C34.8845 34.125 32.1466 34.1136 30.2339 33.1581L30.1394 33.103C30.0195 33.0225 27.1784 31.0616 26.2588 24.6243L26.25 24.5V21H28V24.4379C28.7534 29.6152 30.8009 31.4029 31.0791 31.6234C32.6209 32.3619 34.9773 32.375 35.0009 32.375C35.0227 32.375 37.3783 32.3619 38.9191 31.6243C39.193 31.4055 41.2475 29.6074 42 24.4379V21H43.75L43.7412 24.6243C42.8216 31.0616 39.9805 33.0225 39.8606 33.103L39.7661 33.1581C37.8534 34.1136 35.1155 34.125 35 34.125Z" fill="#003479"/>
<path fill-rule="evenodd" clip-rule="evenodd" d="M43.75 21H42C42 16.1595 39.8414 14 35 14C30.1586 14 28 16.1595 28 21H26.25C26.25 15.1935 29.1935 12.25 35 12.25C40.8065 12.25 43.75 15.1935 43.75 21Z" fill="#003479"/>
<path fill-rule="evenodd" clip-rule="evenodd" d="M39.4144 23.709L30.6644 20.209L27.5161 21.7831L26.7339 20.2169L30.5856 18.291L39.3356 21.791L42.4839 20.2169L43.2661 21.7831L39.4144 23.709Z" fill="#003479"/>
<path fill-rule="evenodd" clip-rule="evenodd" d="M21.875 57.75H23.625V50.75H21.875V57.75Z" fill="#003479"/>
<path fill-rule="evenodd" clip-rule="evenodd" d="M46.375 57.75H48.125V50.75H46.375V57.75Z" fill="#003479"/>
</svg>
