<svg width="255" height="76" viewBox="0 0 255 76" fill="none" xmlns="http://www.w3.org/2000/svg">
<g id="Your Europe-logo" clip-path="url(#clip0_915_5717)">
<path id="Combined-Shape" d="M174.447 19.526C174.842 20.5631 175.869 20.7409 176.56 19.9705C179.83 16.3458 181.272 13.0865 183.504 9.06678C184.373 7.50629 184.462 7.29888 185.41 5.78777C185.795 5.17542 186.881 3.56555 187.484 3.1211C188.393 2.43962 189.756 1.88653 190.832 1.8174C191.83 1.75814 192.936 1.3532 193.578 2.49888C194.565 4.22728 190.723 8.43468 189.785 10.1334C185.301 18.1532 181.242 25.8668 176.205 33.5507C175.365 34.8248 174.378 37.126 173.904 38.568C173.706 39.1705 173.42 39.7433 172.995 40.2372C171.741 41.7088 169.459 41.4026 168.719 39.6446C168.017 37.9655 168.077 36.7013 169.084 34.726C172.926 27.1902 172.017 27.3581 171.267 24.1384C170.2 19.5359 169.815 16.8001 168.58 12.2372C167.79 9.33345 167.523 7.95073 167.593 6.51863C167.672 4.85937 169.538 3.20011 170.457 3.36802C171.583 3.5853 172.057 4.57295 172.412 6.20258C173.212 9.82728 172.748 10.1334 173.499 14.7853C173.607 15.4174 174.072 18.5384 174.447 19.526ZM223.128 50.7853C225.479 50.7853 227.296 51.6841 228.58 53.4816C229.864 55.2791 230.506 57.5014 230.506 60.1483C230.506 63.0717 229.805 65.3038 228.402 66.8347C227 68.3754 225.232 69.1458 223.089 69.1458C222.052 69.1458 221.104 68.968 220.254 68.6125C219.395 68.2569 218.635 67.7335 217.963 67.0421V75.4273H211.168V51.1804H217.469V53.7779C218.338 52.6816 219.138 51.9507 219.869 51.5655C220.847 51.052 221.933 50.7853 223.128 50.7853ZM242.743 50.7754C245.262 50.7754 247.247 51.1606 248.699 51.9211C250.151 52.6816 251.267 53.7878 252.027 55.2297C252.788 56.6717 253.173 58.5581 253.173 60.8693V61.6297H239.662C239.78 62.7063 240.077 63.5162 240.541 64.0495C241.193 64.81 242.042 65.1952 243.089 65.1952C243.751 65.1952 244.383 65.0273 244.975 64.7013C245.341 64.4939 245.726 64.1186 246.151 63.5952L252.788 64.2075C251.77 65.9754 250.546 67.2396 249.114 68.0001C247.681 68.7705 245.627 69.1458 242.941 69.1458C240.61 69.1458 238.783 68.8199 237.449 68.1581C236.116 67.5063 235.01 66.4594 234.131 65.0273C233.252 63.5952 232.817 61.9162 232.817 59.9902C232.817 57.2446 233.696 55.0223 235.454 53.3236C237.212 51.6248 239.642 50.7754 242.743 50.7754ZM169.667 51.1705V68.7409H163.375V65.8964C162.437 67.0618 161.489 67.9014 160.541 68.3952C159.583 68.889 158.417 69.1359 157.025 69.1359C155.168 69.1359 153.716 68.5828 152.669 67.4767C151.612 66.3705 151.089 64.6618 151.089 62.3606V51.1804H157.854V60.8396C157.854 61.9458 158.062 62.726 158.467 63.1902C158.872 63.6544 159.444 63.8816 160.185 63.8816C160.985 63.8816 161.647 63.5754 162.16 62.9532C162.674 62.331 162.931 61.2248 162.931 59.6248V51.1705H169.667ZM197.825 50.7754C201.341 50.7754 203.998 51.7927 205.795 53.8372C207.237 55.4767 207.958 57.5013 207.958 59.9112C207.958 62.6174 207.059 64.8297 205.272 66.5483C203.484 68.2767 201.005 69.1359 197.835 69.1359C195.01 69.1359 192.728 68.4149 190.99 66.9828C188.847 65.2149 187.78 62.8841 187.78 60.01C187.78 57.3334 188.679 55.1211 190.496 53.3828C192.304 51.6446 194.743 50.7754 197.825 50.7754ZM147.257 44.4939V49.6693H134.684V53.5211H146.348V58.4692H134.684V63.2495H147.622V68.7409H127.178V44.4939H147.257ZM184.304 50.7853C185.291 50.7853 186.378 51.0915 187.563 51.7137L185.479 56.5137C184.689 56.1878 184.057 56.0199 183.593 56.0199C182.714 56.0199 182.022 56.3853 181.538 57.1162C180.847 58.1433 180.501 60.0594 180.501 62.8742V68.7409H173.736V51.1804H180.037V54.0544C180.639 52.81 181.272 51.9507 181.914 51.4865C182.556 51.0223 183.356 50.7853 184.304 50.7853ZM197.923 55.4174C196.946 55.4174 196.136 55.7927 195.494 56.5532C194.852 57.3038 194.526 58.4495 194.526 59.9902C194.526 61.5606 194.842 62.7162 195.474 63.4668C196.106 64.2174 196.906 64.5927 197.864 64.5927C198.832 64.5927 199.632 64.2273 200.254 63.4865C200.877 62.7458 201.193 61.5606 201.193 59.931C201.193 58.41 200.877 57.2742 200.254 56.5334C199.622 55.7927 198.852 55.4174 197.923 55.4174ZM220.916 55.7334C220.057 55.7334 219.336 56.0693 218.763 56.7409C218.2 57.4125 217.914 58.4989 217.914 60.01C217.914 61.4026 218.21 62.4297 218.793 63.1013C219.375 63.773 220.116 64.1088 221.005 64.1088C221.785 64.1088 222.447 63.7828 222.97 63.1409C223.504 62.4989 223.76 61.4026 223.76 59.8618C223.76 58.4396 223.484 57.3927 222.931 56.731C222.378 56.0594 221.706 55.7334 220.916 55.7334ZM243.02 54.7754C241.953 54.7754 241.094 55.2001 240.452 56.0495C240.047 56.5828 239.78 57.3631 239.672 58.41H246.309C246.18 57.1063 245.825 56.1779 245.262 55.6149C244.689 55.052 243.948 54.7754 243.02 54.7754ZM240.057 15.852C240.877 16.4248 240.205 17.452 240.007 18.4495C239.869 19.1507 239.454 20.0396 239.593 21.1162C239.672 21.7483 240.462 22.0347 240.936 21.61C241.37 21.2347 242.615 20.1186 243 19.852C244.412 18.8347 244.837 18.5186 246.269 17.5409C248.215 16.2273 249.844 15.5853 252.195 15.6149C252.906 15.6248 253.765 15.7532 253.953 16.4051C254.17 17.1359 253.844 17.3828 253.311 17.6001C250.556 18.7754 248.541 19.8421 245.983 21.4125C241.054 24.4347 238.743 29.7779 236.936 34.7063C236.205 36.6915 236.126 38.489 234.96 40.2174C234.269 41.2446 231.77 41.3335 230.694 40.4841C230.348 40.2174 230.18 39.3779 230.388 38.6371C230.635 37.7878 230.921 37.2051 231.198 36.3557C231.267 36.1384 232.215 33.7088 231.998 33.5507C231.691 33.3334 229.686 35.7334 229.528 35.9112C228.748 36.7705 228.175 37.61 227.267 38.3507C224.481 40.6322 222.486 40.1088 221.815 36.5927C221.765 36.3063 221.844 35.7433 221.617 35.5655C221.38 35.368 220.916 35.7631 220.689 35.9705C219.859 36.7409 219.435 37.531 218.556 38.331C217.4 39.3779 216.363 40.2075 214.97 40.9483C211.622 42.7359 209.242 41.8273 206.477 39.9112C205.133 38.9828 204.61 36.6421 204.896 35.0717C205.262 33.047 206.526 28.8989 207.188 26.8149C207.346 26.3112 206.891 25.9655 206.368 26.0051C205.718 26.0489 204.967 26.3894 204.239 26.735L203.968 26.8643L203.958 26.8841C202.289 27.7137 199.978 30.0149 199.444 31.4865C198.704 33.5606 197.449 36.1779 196.235 38.0446C195.168 39.6643 193.785 40.8594 191.79 41.2841C189.943 41.6693 188.244 41.3137 186.842 40.1779C184.501 38.2717 183.138 35.931 183.8 32.7507C185.005 26.8347 187.602 21.7088 192.59 17.926C192.975 17.6396 193.351 17.3532 193.756 17.1063C195.879 15.7927 197.943 16.2964 199.889 17.8372C201.904 19.447 202.457 21.8075 201.509 24.7902C201.439 24.9976 201.262 25.8767 201.183 26.2421C201.163 26.3409 201.193 26.4495 201.291 26.489C201.518 26.6075 202.2 26.2618 202.98 25.7384C203.188 25.61 203.395 25.452 203.612 25.3038C203.879 25.126 204.146 24.9384 204.402 24.7409C205.015 24.3063 205.607 23.852 206.19 23.4075L206.23 23.3779C207.257 22.5976 208.274 21.8372 209.331 21.1853C209.726 20.9285 210.131 20.6915 210.556 20.5236C212.817 19.6643 215.099 20.0594 214.644 22.4297C214.23 24.5828 213.4 26.6964 212.551 28.9384C212.007 30.3902 211.326 32.4347 211.178 33.9754C211.128 34.5779 211.059 36.089 212.264 36.5631C214.052 37.2742 214.763 36.1285 215.227 35.5162C216.295 34.1153 217.554 31.6391 218.73 29.0822L219.035 28.414C219.123 28.2189 219.211 28.0239 219.297 27.8294L219.556 27.2476C221.09 23.7708 222.345 20.5888 222.615 20.2569C223.77 18.8248 225.044 18.5186 226.496 19.2693C228.254 20.1878 229.005 21.5211 228.422 23.2594C227.494 26.0051 227.316 26.2322 226.299 28.9483C226.081 29.531 224.738 33.1853 225.183 34.0051C226.289 36.0199 228.383 34.0643 229.114 33.5014C231.107 31.975 232.088 29.7793 233.066 27.5302L233.36 26.8544C234.309 24.6915 234.704 22.3112 235.039 19.9705C235.257 18.3902 234.98 17.4816 235.998 16.4742C237.262 15.2199 238.901 15.0421 240.057 15.852ZM157.41 8.73098C157.746 8.73098 157.973 8.97789 158.121 9.23468C158.18 9.33345 158.19 9.41246 158.23 9.51123C158.249 9.689 158.259 9.8174 158.259 9.94579C158.259 10.3211 158.17 10.6964 158.091 11.052C157.202 15.5359 155.988 19.9409 154.21 24.1483C153.321 26.252 152.254 28.2865 150.96 30.173C150.299 31.131 149.519 31.9507 148.758 32.8001C148.007 33.6693 147.089 34.3902 146.141 35.0322C144.225 36.2767 141.864 37.0668 139.543 36.6717C137.222 36.3162 135.178 34.9828 133.558 33.3631C131.938 31.7236 130.595 29.8372 129.469 27.852C128.906 26.8544 128.363 25.847 127.879 24.8001L127.168 23.2495C126.921 22.7557 126.694 22.1236 126.704 21.5211C126.694 20.9088 126.812 20.3063 127.119 19.7334C127.454 19.1705 127.968 18.8347 128.393 18.489C128.807 18.1334 129.301 17.7186 129.894 17.5211C130.477 17.3038 131.158 17.3137 131.741 17.531C132.323 17.7483 132.857 18.1334 133.212 18.6569C133.568 19.1902 133.726 19.8026 133.775 20.4051C133.795 20.7211 133.775 21.0174 133.726 21.3236C133.686 21.6297 133.548 21.9359 133.558 22.1137C133.568 22.6075 133.716 23.1705 133.854 23.7038C134.447 25.8865 135.316 27.9804 136.965 29.5112C137.746 30.3211 138.605 31.0223 139.632 31.3779C140.649 31.7433 141.765 31.773 142.832 31.5359C144.975 31.0322 146.872 29.689 148.343 28.0001C149.844 26.3211 151.109 24.4248 152.136 22.41C153.202 20.4051 153.943 18.2618 154.654 16.089C155.356 13.9162 155.968 11.7334 156.551 9.5211C156.57 9.4816 156.57 9.47172 156.58 9.45197L156.6 9.38283C156.62 9.34332 156.63 9.31369 156.669 9.26431C156.669 9.26431 156.659 9.26431 156.669 9.25444L156.679 9.23468V9.22481C156.847 8.99765 157.084 8.75073 157.41 8.73098ZM194.239 21.9655C191.247 24.9384 188.689 31.1409 188.136 33.1458C186.714 38.2816 191.899 36.6717 192.521 35.5655C196.057 29.2939 197.43 25.1952 197.084 23.3285C196.333 19.1804 194.239 21.9655 194.239 21.9655ZM140.857 8.86925C140.886 10.9433 140.353 12.2865 137.439 12.731C134.279 12.81 133.933 7.93098 136.61 6.6569C139.533 5.26431 140.827 6.42974 140.857 8.86925ZM153.726 4.86925C153.756 6.94332 153.212 8.28653 150.309 8.73098C147.148 8.80999 146.802 3.93098 149.479 2.6569C152.402 1.26431 153.696 2.42974 153.726 4.86925ZM103.099 0.64209V69.9162H0.175293V0.64209H103.099ZM101.123 2.6174H2.1506V67.9409H101.123V2.6174ZM51.6123 53.7779L52.4321 56.326H55.0988L52.9358 57.8767L53.7457 60.3952L51.6123 58.8446L49.4889 60.3952L50.2889 57.8767L48.1358 56.326H50.8025L51.6123 53.7779ZM40.6 50.8544L41.4197 53.4026H44.0864L41.9234 54.9532L42.7333 57.4717L40.6099 55.9112L38.4765 57.4717L39.2864 54.9532L37.1234 53.4026H39.7901L40.6 50.8544ZM62.6247 50.8544L63.4346 53.4026H66.1012L63.9383 54.9532L64.758 57.4717L62.6247 55.9112L60.4913 57.4717L61.3012 54.9532L59.1383 53.4026H61.8049L62.6247 50.8544ZM32.521 42.7754L33.3407 45.3137H36.0074L33.8444 46.8742L34.6543 49.3828L32.521 47.8322L30.3975 49.3828L31.2074 46.8742L29.0444 45.3137L31.7111 45.3236L32.521 42.7754ZM70.7037 42.7754L71.5234 45.3137H74.1901L72.0173 46.8742L72.837 49.3828L70.7037 47.8322L68.5704 49.3828L69.3901 46.8742L67.2271 45.3137L69.8839 45.3236L70.7037 42.7754ZM29.5679 31.7236L30.3778 34.2717H33.0444L30.8815 35.8322L31.6913 38.3409L29.5679 36.7902L27.4346 38.3409L28.2444 35.8322L26.0815 34.2717L28.7481 34.2816L29.5679 31.7236ZM73.6271 31.6939L74.4469 34.2421H77.1136L74.9506 35.8026L75.7605 38.3112L73.6271 36.7606L71.5037 38.3112L72.3136 35.8026L70.1506 34.2421L72.8173 34.252L73.6271 31.6939ZM32.521 20.7211L33.3407 23.2693H36.0074L33.8444 24.8199L34.6543 27.3384L32.521 25.7779L30.3975 27.3384L31.2074 24.8199L29.0444 23.2693H31.7111L32.521 20.7211ZM70.7037 20.6915L71.5234 23.2396H74.1901L72.0173 24.7902L72.837 27.2989L70.7037 25.7483L68.5704 27.2989L69.3901 24.7902L67.2271 23.2396H69.8839L70.7037 20.6915ZM62.6543 12.6421L63.4642 15.1804H66.1407L63.9778 16.7409L64.7876 19.2495L62.6543 17.6989L60.521 19.2495L61.3308 16.7409L59.1679 15.1804L61.8346 15.1902L62.6543 12.6421ZM40.5901 12.6322L41.4 15.1804H44.0667L41.9037 16.7409L42.7136 19.2495L40.5901 17.6989L38.4568 19.2495L39.2667 16.7409L37.1037 15.1804L39.7704 15.1902L40.5901 12.6322ZM51.6123 9.67913L52.4321 12.2174H55.0988L52.9259 13.7779L53.7457 16.2865L51.6123 14.7359L49.479 16.2865L50.2889 13.7779L48.1259 12.2174L50.7926 12.2273L51.6123 9.67913Z" fill="white"/>
</g>
<defs>
<clipPath id="clip0_915_5717">
<rect width="255" height="76" fill="white"/>
</clipPath>
</defs>
</svg>
